<svg xmlns="http://www.w3.org/2000/svg" version="1.1" xmlns:xlink="http://www.w3.org/1999/xlink" xmlns:svgjs="http://svgjs.com/svgjs" width="1440" height="560" preserveAspectRatio="none" viewBox="0 0 1440 560"><g mask="url(&quot;#SvgjsMask1007&quot;)" fill="none"><rect width="1440" height="560" x="0" y="0" fill="url(#SvgjsLinearGradient1008)"></rect><path d="M534 320L533 48" stroke-width="6" stroke="url(#SvgjsLinearGradient1009)" stroke-linecap="round" class="Down"></path><path d="M297 213L296 4" stroke-width="8" stroke="url(#SvgjsLinearGradient1010)" stroke-linecap="round" class="Up"></path><path d="M729 218L728 543" stroke-width="8" stroke="url(#SvgjsLinearGradient1010)" stroke-linecap="round" class="Up"></path><path d="M1059 191L1058 -184" stroke-width="6" stroke="url(#SvgjsLinearGradient1009)" stroke-linecap="round" class="Down"></path><path d="M406 146L405 364" stroke-width="10" stroke="url(#SvgjsLinearGradient1009)" stroke-linecap="round" class="Down"></path><path d="M1185 265L1184 624" stroke-width="6" stroke="url(#SvgjsLinearGradient1010)" stroke-linecap="round" class="Up"></path><path d="M803 27L802 -193" stroke-width="6" stroke="url(#SvgjsLinearGradient1010)" stroke-linecap="round" class="Up"></path><path d="M1220 0L1219 -403" stroke-width="6" stroke="url(#SvgjsLinearGradient1009)" stroke-linecap="round" class="Down"></path><path d="M319 250L318 668" stroke-width="6" stroke="url(#SvgjsLinearGradient1009)" stroke-linecap="round" class="Down"></path><path d="M535 5L534 158" stroke-width="8" stroke="url(#SvgjsLinearGradient1009)" stroke-linecap="round" class="Down"></path><path d="M710 437L709 828" stroke-width="6" stroke="url(#SvgjsLinearGradient1010)" stroke-linecap="round" class="Up"></path><path d="M1010 419L1009 670" stroke-width="8" stroke="url(#SvgjsLinearGradient1009)" stroke-linecap="round" class="Down"></path><path d="M760 205L759 622" stroke-width="8" stroke="url(#SvgjsLinearGradient1009)" stroke-linecap="round" class="Down"></path><path d="M1020 326L1019 39" stroke-width="10" stroke="url(#SvgjsLinearGradient1009)" stroke-linecap="round" class="Down"></path><path d="M1358 17L1357 -241" stroke-width="8" stroke="url(#SvgjsLinearGradient1010)" stroke-linecap="round" class="Up"></path><path d="M816 187L815 605" stroke-width="6" stroke="url(#SvgjsLinearGradient1009)" stroke-linecap="round" class="Down"></path><path d="M97 44L96 -272" stroke-width="8" stroke="url(#SvgjsLinearGradient1010)" stroke-linecap="round" class="Up"></path><path d="M1328 538L1327 906" stroke-width="8" stroke="url(#SvgjsLinearGradient1009)" stroke-linecap="round" class="Down"></path><path d="M255 182L254 406" stroke-width="10" stroke="url(#SvgjsLinearGradient1009)" stroke-linecap="round" class="Down"></path><path d="M535 359L534 -30" stroke-width="6" stroke="url(#SvgjsLinearGradient1010)" stroke-linecap="round" class="Up"></path><path d="M707 377L706 162" stroke-width="10" stroke="url(#SvgjsLinearGradient1010)" stroke-linecap="round" class="Up"></path><path d="M1079 347L1078 675" stroke-width="6" stroke="url(#SvgjsLinearGradient1009)" stroke-linecap="round" class="Down"></path><path d="M484 37L483 -204" stroke-width="6" stroke="url(#SvgjsLinearGradient1009)" stroke-linecap="round" class="Down"></path><path d="M244 267L243 484" stroke-width="10" stroke="url(#SvgjsLinearGradient1010)" stroke-linecap="round" class="Up"></path><path d="M634 31L633 -127" stroke-width="8" stroke="url(#SvgjsLinearGradient1009)" stroke-linecap="round" class="Down"></path><path d="M1169 82L1168 254" stroke-width="10" stroke="url(#SvgjsLinearGradient1009)" stroke-linecap="round" class="Down"></path><path d="M791 523L790 772" stroke-width="8" stroke="url(#SvgjsLinearGradient1010)" stroke-linecap="round" class="Up"></path><path d="M1249 290L1248 -108" stroke-width="8" stroke="url(#SvgjsLinearGradient1009)" stroke-linecap="round" class="Down"></path><path d="M745 221L744 523" stroke-width="8" stroke="url(#SvgjsLinearGradient1010)" stroke-linecap="round" class="Up"></path><path d="M286 69L285 -209" stroke-width="6" stroke="url(#SvgjsLinearGradient1009)" stroke-linecap="round" class="Down"></path><path d="M1231 278L1230 -51" stroke-width="10" stroke="url(#SvgjsLinearGradient1009)" stroke-linecap="round" class="Down"></path><path d="M1318 40L1317 -238" stroke-width="6" stroke="url(#SvgjsLinearGradient1009)" stroke-linecap="round" class="Down"></path><path d="M1084 458L1083 682" stroke-width="6" stroke="url(#SvgjsLinearGradient1010)" stroke-linecap="round" class="Up"></path><path d="M1067 454L1066 256" stroke-width="10" stroke="url(#SvgjsLinearGradient1009)" stroke-linecap="round" class="Down"></path><path d="M1216 85L1215 368" stroke-width="10" stroke="url(#SvgjsLinearGradient1010)" stroke-linecap="round" class="Up"></path><path d="M55 121L54 331" stroke-width="8" stroke="url(#SvgjsLinearGradient1009)" stroke-linecap="round" class="Down"></path></g><defs><mask id="SvgjsMask1007"><rect width="1440" height="560" fill="#ffffff"></rect></mask><linearGradient x1="15.28%" y1="-39.29%" x2="84.72%" y2="139.29%" gradientUnits="userSpaceOnUse" id="SvgjsLinearGradient1008"><stop stop-color="#0e2a47" offset="0"></stop><stop stop-color="#00459e" offset="1"></stop></linearGradient><linearGradient x1="0%" y1="0%" x2="0%" y2="100%" id="SvgjsLinearGradient1009"><stop stop-color="rgba(28, 83, 142, 0)" offset="0"></stop><stop stop-color="#1c538e" offset="1"></stop></linearGradient><linearGradient x1="0%" y1="100%" x2="0%" y2="0%" id="SvgjsLinearGradient1010"><stop stop-color="rgba(28, 83, 142, 0)" offset="0"></stop><stop stop-color="#1c538e" offset="1"></stop></linearGradient></defs></svg>