<svg xmlns="http://www.w3.org/2000/svg" width="404.88" viewBox="0 0 404.88 405" height="405" version="1.0"><defs><clipPath id="a"><path d="M 214.359375 293.261719 L 357.382812 293.261719 L 357.382812 395 L 214.359375 395 Z M 214.359375 293.261719"/></clipPath><clipPath id="b"><path d="M 214 292 L 353.976562 292 L 353.976562 395.304688 L 214 395.304688 Z M 214 292"/></clipPath><clipPath id="c"><path d="M 286 198 L 404.761719 198 L 404.761719 323 L 286 323 Z M 286 198"/></clipPath><clipPath id="d"><path d="M 285.871094 198 L 404.449219 198 L 404.449219 323 L 285.871094 323 Z M 285.871094 198"/></clipPath></defs><path fill="#100F0D" d="M 113.710938 107.539062 L 119.707031 109.128906 L 119.488281 109.953125 L 113.492188 108.363281 Z M 86.375 125.066406 L 87.160156 125.394531 L 85.101562 130.277344 L 84.320312 129.949219 Z M 77.714844 120.710938 L 78.375 121.242188 L 75.152344 125.257812 L 74.488281 124.722656 Z M 72.753906 115.265625 L 73.191406 115.996094 L 68.59375 118.761719 L 68.152344 118.027344 Z M 62.566406 111.640625 L 68.230469 109.632812 L 68.515625 110.4375 L 62.847656 112.445312 Z M 93.132812 124.792969 L 93.984375 124.792969 L 93.984375 130.109375 L 93.132812 130.109375 Z M 111.921875 112.625 L 117.605469 115.242188 L 117.25 116.019531 L 111.5625 113.398438 Z M 101.789062 122.480469 L 103.679688 127.179688 L 102.890625 127.5 L 101 122.800781 Z M 107.1875 118.789062 L 110.65625 123.195312 L 109.988281 123.726562 L 106.519531 119.316406 Z M 127.238281 190.148438 L 122.890625 197 L 122.171875 196.542969 L 126.519531 189.691406 Z M 163.097656 198.679688 C 162.78125 200.535156 147.5625 242.316406 129.972656 256.574219 L 129.433594 255.910156 C 146.46875 242.105469 161.957031 200.304688 162.257812 198.535156 C 162.519531 197.003906 158.105469 177.242188 155.070312 164.339844 L 155.058594 164.285156 L 155.0625 164.226562 C 155.183594 160.472656 156.191406 130.894531 156.882812 123.074219 L 144.011719 141.734375 C 143.386719 144.320312 133.921875 183.480469 131.011719 188.253906 C 131.160156 189.773438 131.667969 194.894531 132.207031 200.757812 C 136.382812 184.953125 153.277344 184.757812 153.464844 184.757812 C 153.464844 184.757812 153.464844 184.757812 153.46875 184.757812 L 153.464844 185.609375 C 152.71875 185.609375 135.1875 185.820312 132.472656 203.640625 C 132.480469 203.726562 132.488281 203.820312 132.5 203.90625 C 140.417969 190.816406 152.582031 196.328125 152.707031 196.386719 L 152.34375 197.160156 C 151.847656 196.921875 140.125 191.648438 132.632812 205.390625 C 133.371094 213.707031 134.039062 222.046875 133.816406 223.058594 C 133.351562 225.132812 126.5625 229.246094 125.789062 229.710938 L 125.351562 228.976562 C 128.148438 227.304688 132.695312 224.167969 132.984375 222.875 C 133.171875 222.03125 132.570312 214.316406 131.777344 205.433594 L 131.664062 205.378906 C 131.695312 205.320312 131.726562 205.269531 131.757812 205.210938 C 131.246094 199.496094 130.660156 193.320312 130.152344 188.191406 L 130.132812 188.039062 L 130.222656 187.910156 C 132.96875 183.871094 143.101562 141.882812 143.199219 141.457031 L 143.261719 141.320312 L 157.015625 121.378906 C 154.871094 119.550781 130.257812 110.09375 113.835938 104.042969 L 114.128906 103.242188 C 124.195312 106.953125 157.101562 119.210938 157.914062 121.144531 C 157.976562 121.285156 157.976562 121.4375 157.914062 121.570312 C 157.453125 122.828125 156.464844 147.730469 155.914062 164.199219 C 156.746094 167.757812 163.472656 196.492188 163.097656 198.679688 Z M 54.84375 204.117188 C 49.757812 205.742188 45.175781 205.382812 41.222656 203.027344 C 32.378906 197.769531 29.285156 184.125 28.910156 182.308594 C 33.675781 174.28125 39.09375 169.210938 39.898438 168.476562 C 47.753906 167.765625 53.941406 169.328125 58.285156 173.101562 C 63.765625 177.855469 64.496094 184.683594 64.570312 185.617188 C 64.074219 186.617188 60.128906 194.503906 54.84375 204.117188 Z M 58.855469 172.464844 C 54.300781 168.503906 47.847656 166.878906 39.675781 167.640625 L 39.539062 167.652344 L 39.4375 167.746094 C 39.339844 167.832031 34.351562 172.253906 29.535156 179.695312 C 26.28125 180.453125 18.167969 193.339844 16.53125 195.992188 L 17.257812 196.4375 C 20.5 191.191406 25.886719 183.339844 28.636719 181.121094 C 24.152344 188.4375 20.089844 198.332031 20.597656 209.71875 L 21.449219 209.679688 C 20.992188 199.421875 24.320312 190.390625 28.277344 183.40625 C 29.140625 187.125 32.449219 198.800781 40.785156 203.761719 C 43.261719 205.234375 45.96875 205.972656 48.871094 205.972656 C 50.601562 205.972656 52.402344 205.699219 54.265625 205.175781 C 45.132812 221.714844 32.347656 242.714844 26.226562 242.949219 C 15.566406 243.375 10.59375 233.875 6 218.445312 C 1.113281 202.035156 14.503906 181.644531 14.640625 181.441406 L 14.722656 181.320312 L 14.710938 181.171875 C 13.3125 163.273438 11.121094 128.875 12.625 124.355469 C 31.710938 124.742188 41.09375 163.941406 41.1875 164.339844 L 42.015625 164.144531 C 41.632812 162.507812 32.578125 124.667969 13.238281 123.519531 C 17.613281 119.839844 46.015625 110.261719 65.128906 104.402344 L 64.878906 103.585938 C 59.691406 105.175781 14.140625 119.257812 11.949219 123.730469 C 9.785156 128.148438 13.566406 177.433594 13.851562 181.09375 C 12.71875 182.855469 0.390625 202.578125 5.183594 218.6875 C 9.789062 234.175781 14.84375 243.816406 25.550781 243.816406 C 25.785156 243.816406 26.019531 243.808594 26.253906 243.800781 C 36.820312 243.394531 64.222656 188.238281 65.386719 185.890625 L 65.433594 185.792969 L 65.429688 185.683594 C 65.414062 185.363281 64.988281 177.800781 58.855469 172.464844"/><path fill="#3E5BB2" d="M 75.363281 94.425781 L 65.003906 103.996094 C 65.003906 103.996094 77.03125 130.894531 96.230469 124.730469 C 115.433594 118.566406 113.980469 103.644531 113.980469 103.644531 L 103.027344 97.273438 Z M 51.238281 163.589844 C 51.238281 163.589844 48.304688 156.738281 42.433594 162.066406 C 39.433594 164.792969 37.628906 167.871094 36.578125 170.230469 C 35.574219 172.492188 35.945312 175.121094 37.515625 177.03125 C 41.9375 182.402344 52.003906 192.710938 59.90625 186.535156 C 70.339844 178.378906 67.863281 174.679688 51.238281 163.589844 Z M 124.050781 237.175781 C 138.253906 253.125 139.855469 341.953125 139.855469 341.953125 L 41.238281 366.65625 C 41.238281 366.65625 30.730469 302.136719 29.863281 280.335938 C 28.996094 258.535156 42.324219 237.175781 42.324219 237.175781 L 124.050781 237.175781"/><path fill="#EDAA98" d="M 56.632812 179.992188 L 64.410156 165.421875 C 89.574219 154.324219 95.324219 145.410156 93.261719 144.300781 C 91.195312 143.1875 79.75 149.871094 79.75 149.871094 C 95.964844 140.46875 100.335938 138.351562 98.382812 135.789062 C 96.429688 133.222656 89.78125 137.796875 89.78125 137.796875 C 99.347656 132.902344 100.359375 129.804688 98.042969 128.878906 C 95.632812 127.917969 73.695312 137.796875 73.695312 137.796875 C 73.695312 137.796875 85.652344 126.488281 88.480469 123.492188 C 91.300781 120.496094 88.042969 116.480469 85.109375 119.417969 C 82.171875 122.355469 59.675781 141.058594 59.675781 141.058594 C 58.917969 140.300781 62.394531 133.449219 63.917969 129.097656 C 65.441406 124.746094 61.414062 117.894531 59.351562 123.492188 C 57.285156 129.085938 50.875 139.101562 49.679688 143.34375 C 48.484375 147.585938 49.679688 160.746094 49.679688 160.746094 L 43.921875 170.207031 C 48.703125 181.730469 56.632812 179.992188 56.632812 179.992188 Z M 117.320312 71.238281 C 116.328125 75.367188 111.984375 92.65625 109.082031 94.359375 C 107.863281 95.082031 104.8125 94.78125 103.945312 94.96875 C 102.449219 95.289062 103.265625 97.152344 102.96875 98.667969 C 102.761719 99.738281 102.105469 100.679688 101.171875 101.242188 C 97.691406 103.316406 88.484375 106.980469 77.035156 96.980469 C 76.292969 96.332031 75.8125 95.429688 75.707031 94.449219 L 74.039062 78.902344 C 73.875 77.40625 72.867188 76.109375 71.4375 75.65625 C 69.535156 75.050781 66.742188 73.445312 64.113281 69.191406 C 61.363281 64.738281 63.023438 61.101562 65.875 59.679688 C 65.875 59.679688 75.691406 65.71875 74.386719 61.476562 C 73.085938 57.234375 76.882812 40.917969 76.882812 40.917969 L 74.386719 38.3125 L 78.515625 39.828125 C 89.167969 33.199219 108.398438 37.878906 112.09375 38.636719 C 115.796875 39.394531 116.726562 46.589844 116.726562 46.589844 L 116.714844 46.601562 C 116.929688 48.261719 116.980469 49.964844 116.757812 51.695312 C 115.644531 60.242188 116.863281 67.242188 117.347656 69.550781 C 117.46875 70.113281 117.457031 70.683594 117.320312 71.238281"/><path fill="#FFF" d="M 110.324219 78.417969 C 110.324219 78.417969 104.203125 82.480469 90.359375 79.144531 C 90.359375 79.144531 97.96875 86.613281 103.765625 85.160156 C 109.5625 83.714844 110.324219 78.417969 110.324219 78.417969 Z M 94.78125 60.421875 C 94.78125 60.421875 89.089844 56.179688 81.742188 58.828125 C 81.742188 58.828125 82.679688 63.65625 87.539062 64.484375 C 94.78125 65.714844 94.78125 60.421875 94.78125 60.421875 Z M 110.324219 63.613281 C 105.578125 64.699219 105.503906 60.277344 105.503906 60.277344 C 109.199219 55.78125 115.140625 57.304688 115.140625 57.304688 C 115.140625 57.304688 115.070312 62.523438 110.324219 63.613281"/><path fill="#100F0D" d="M 91.980469 148.8125 L 91.542969 148.082031 C 91.289062 148.230469 90.472656 148.613281 90.019531 148.402344 C 89.945312 148.371094 89.726562 148.265625 89.640625 147.75 C 89.429688 146.484375 92.542969 145.535156 93.648438 145.300781 L 93.472656 144.464844 C 92.953125 144.578125 88.417969 145.597656 88.800781 147.890625 C 88.933594 148.6875 89.34375 149.027344 89.664062 149.175781 C 89.878906 149.273438 90.113281 149.316406 90.339844 149.316406 C 91.113281 149.316406 91.875 148.875 91.980469 148.8125 Z M 95.714844 139.953125 C 95.683594 139.953125 94.917969 139.933594 94.917969 138.628906 C 94.917969 137.492188 97.53125 136.644531 98.445312 136.4375 L 98.253906 135.605469 C 97.828125 135.703125 94.066406 136.609375 94.066406 138.628906 C 94.066406 140.339844 95.140625 140.800781 95.707031 140.804688 Z M 96.039062 134.464844 L 96.007812 133.613281 C 95.996094 133.613281 95.253906 133.636719 94.832031 133.226562 C 94.632812 133.035156 94.539062 132.777344 94.539062 132.429688 C 94.539062 131.484375 96.84375 130.320312 98.480469 129.792969 L 98.21875 128.984375 C 97.757812 129.128906 93.6875 130.492188 93.6875 132.429688 C 93.6875 133.011719 93.871094 133.488281 94.242188 133.84375 C 94.851562 134.425781 95.753906 134.46875 95.984375 134.46875 C 96.015625 134.46875 96.035156 134.46875 96.039062 134.464844 Z M 88.203125 124.289062 L 88.027344 123.453125 C 87.964844 123.46875 86.453125 123.769531 86.039062 122.5625 C 85.714844 121.621094 87.390625 119.875 88.523438 118.992188 L 88 118.320312 C 87.652344 118.589844 84.609375 121.027344 85.234375 122.835938 C 85.644531 124.035156 86.742188 124.347656 87.582031 124.347656 C 87.8125 124.347656 88.027344 124.324219 88.203125 124.289062 Z M 61.011719 126.949219 C 63.308594 125.132812 61.691406 121.382812 61.621094 121.222656 L 60.84375 121.566406 C 60.855469 121.597656 62.265625 124.871094 60.480469 126.28125 C 59.855469 126.777344 59.3125 126.988281 58.917969 126.890625 C 58.550781 126.800781 58.394531 126.460938 58.390625 126.449219 L 57.605469 126.78125 C 57.722656 127.050781 58.078125 127.550781 58.699219 127.710938 C 58.835938 127.75 58.976562 127.765625 59.117188 127.765625 C 59.6875 127.765625 60.320312 127.492188 61.011719 126.949219 Z M 64.613281 165.792969 L 64.203125 165.046875 L 62.40625 166.042969 L 62.820312 166.789062 Z M 95.605469 140.96875 L 95.164062 140.242188 L 76.085938 151.917969 L 76.527344 152.640625 Z M 93.777344 136.0625 L 93.34375 135.328125 L 73.480469 147.054688 L 73.914062 147.789062 Z M 70.636719 140.933594 L 70.089844 140.28125 L 73.425781 137.472656 L 73.972656 138.125 L 70.636719 140.933594"/><path fill="#100F0D" d="M 135.851562 278.53125 C 131.828125 246.308594 124.683594 237.273438 124.378906 236.90625 L 123.722656 237.445312 C 123.796875 237.535156 131.011719 246.65625 135.003906 278.636719 C 139.011719 310.703125 138.984375 340.890625 138.984375 341.195312 L 139.835938 341.195312 C 139.835938 340.894531 139.863281 310.65625 135.851562 278.53125 Z M 59.292969 239.324219 L 41.296875 261.148438 L 43.199219 264.0625 L 61.90625 241.558594 Z M 59.191406 238.113281 L 63.097656 241.457031 L 43.117188 265.496094 L 40.238281 261.089844 Z M 119.089844 286.382812 L 93.636719 305.238281 L 116.058594 295.441406 L 116.398438 296.21875 L 90.8125 307.40625 L 95.011719 353.253906 L 94.164062 353.335938 L 89.914062 306.941406 L 101.023438 298.710938 L 101.023438 242.976562 L 101.875 242.976562 L 101.875 298.078125 L 118.582031 285.695312 L 119.089844 286.382812"/><path fill="#FFF" d="M 105.90625 229.34375 L 105.90625 242.820312 C 99.578125 243.339844 92.90625 243.449219 86.339844 243.332031 L 86.339844 229.34375 L 105.90625 229.34375"/><path fill="#100F0D" d="M 102.96875 231.882812 L 90.359375 231.882812 L 90.359375 240.257812 L 102.96875 240.257812 Z M 105.90625 229.34375 L 105.90625 242.820312 C 113.152344 242.226562 119.933594 241.105469 125.570312 239.234375 L 125.570312 229.34375 Z M 42.183594 229.34375 L 86.339844 229.34375 L 86.339844 243.332031 C 63.042969 242.855469 41.136719 239.234375 41.136719 239.234375 L 42.183594 229.34375"/><path fill="#100F0D" d="M 98.320312 115.464844 C 98.320312 114.578125 97.808594 113.824219 97.195312 113.824219 C 96.582031 113.824219 96.0625 114.578125 96.0625 115.464844 C 96.0625 116.359375 96.582031 117.105469 97.195312 117.105469 C 97.808594 117.105469 98.320312 116.359375 98.320312 115.464844 Z M 99.171875 115.464844 C 99.171875 116.839844 98.285156 117.957031 97.195312 117.957031 C 96.105469 117.957031 95.210938 116.839844 95.210938 115.464844 C 95.210938 114.09375 96.105469 112.972656 97.195312 112.972656 C 98.285156 112.972656 99.171875 114.09375 99.171875 115.464844 Z M 110.382812 101.890625 L 105.042969 119.21875 L 92.699219 106.066406 L 95.382812 124.929688 L 94.542969 125.050781 L 91.824219 105.972656 L 81.367188 122.03125 L 66.980469 102.613281 L 67.664062 102.109375 L 81.320312 120.539062 L 92.027344 104.105469 L 104.660156 117.570312 L 109.574219 101.640625 L 110.382812 101.890625"/><path fill="#100F0D" d="M 121.277344 36.957031 C 119.890625 41.804688 116.726562 46.589844 116.726562 46.589844 C 116.726562 46.589844 115.796875 39.394531 112.09375 38.636719 C 108.398438 37.878906 89.167969 33.199219 78.515625 39.828125 L 74.386719 38.3125 L 76.882812 40.917969 C 76.882812 40.917969 73.085938 57.234375 74.386719 61.476562 C 75.691406 65.71875 65.875 59.679688 65.875 59.679688 C 63.125 54.515625 57.96875 43.460938 60.914062 37.980469 C 64.707031 30.910156 71.996094 33.636719 72.414062 33.796875 C 72.15625 33.609375 69.527344 31.34375 79.601562 24.058594 C 83.945312 20.925781 89.03125 20.582031 94.324219 21.386719 C 82.546875 24.675781 77.445312 35.714844 77.386719 35.851562 L 78.164062 36.199219 C 78.226562 36.0625 83.714844 24.210938 96.464844 21.765625 C 99.371094 22.355469 102.324219 23.226562 105.226562 24.101562 C 93.824219 26.554688 84.835938 32.542969 84.707031 32.628906 L 85.183594 33.335938 C 85.316406 33.246094 95.007812 26.792969 106.941406 24.621094 C 110.332031 25.652344 113.644531 26.621094 116.726562 27.113281 C 121.851562 27.921875 122.476562 31.769531 121.566406 35.835938 C 120.402344 34.226562 118.945312 32.96875 117.195312 32.078125 C 109.738281 28.289062 99.78125 32.414062 99.363281 32.589844 L 99.691406 33.375 C 99.792969 33.332031 109.707031 29.226562 116.808594 32.839844 C 118.644531 33.769531 120.128906 35.160156 121.277344 36.957031 Z M 91.871094 79.921875 C 94.210938 81.898438 99.492188 85.789062 103.664062 84.75 C 107.75 83.726562 109.199219 80.746094 109.683594 79.242188 C 107.632812 80.183594 101.957031 82.035156 91.871094 79.921875 Z M 102.183594 85.777344 C 96.578125 85.777344 90.351562 79.730469 90.066406 79.449219 L 88.964844 78.371094 L 90.460938 78.730469 C 103.960938 81.984375 110.027344 78.105469 110.085938 78.0625 L 110.878906 77.542969 L 110.742188 78.480469 C 110.734375 78.535156 109.875 84.074219 103.867188 85.574219 C 103.316406 85.714844 102.753906 85.777344 102.183594 85.777344 Z M 98.316406 75.097656 L 97.984375 74.3125 L 100.738281 73.152344 L 101.070312 73.9375 Z M 103.492188 75.394531 L 102.953125 74.738281 C 104.039062 73.835938 105.769531 72.0625 105.769531 71.152344 C 105.769531 70.175781 103.488281 65.753906 102.054688 63.191406 L 102.796875 62.777344 C 103.1875 63.476562 106.621094 69.636719 106.621094 71.152344 C 106.621094 72.757812 103.8125 75.128906 103.492188 75.394531 Z M 103.15625 99.492188 L 102.3125 99.378906 L 102.8125 95.699219 C 100.664062 95.289062 90.734375 93.324219 85.617188 90.894531 C 79.847656 88.15625 77.722656 79.730469 77.632812 79.375 L 78.460938 79.167969 C 78.480469 79.253906 80.582031 87.5625 85.980469 90.125 C 91.515625 92.753906 103.242188 94.914062 103.363281 94.933594 L 103.761719 95.007812 Z M 71.898438 67.40625 C 69.15625 63.390625 65.0625 65.042969 65.023438 65.058594 L 64.695312 64.273438 C 64.742188 64.257812 69.46875 62.339844 72.597656 66.921875 Z M 113.957031 49.710938 L 115.335938 52.324219 C 110.066406 50.5625 105.289062 54.261719 105.289062 54.261719 L 105.289062 51.9375 C 109.34375 47.445312 113.957031 49.710938 113.957031 49.710938 Z M 94.644531 54.550781 C 92.191406 51.9375 81.742188 53.460938 81.742188 53.460938 L 83.914062 50.996094 C 91.882812 48.097656 95.035156 52.664062 95.035156 52.664062 Z M 87.007812 64.375 C 88.90625 57.160156 94.644531 61.3125 94.644531 61.3125 C 93.386719 66.191406 87.007812 64.375 87.007812 64.375 Z M 81.742188 59.152344 L 81.742188 58.246094 C 89.132812 55.167969 95.035156 60.421875 95.035156 60.421875 C 87.789062 56.285156 81.742188 59.152344 81.742188 59.152344 Z M 115.574219 57.054688 C 115.574219 57.054688 114.199219 55.855469 111.082031 56.542969 C 107.96875 57.234375 105.289062 60.167969 105.289062 60.167969 C 105.289062 60.167969 111.445312 56.324219 115.285156 57.632812 Z M 108.617188 63.773438 C 109.164062 57.304688 114.785156 59.304688 114.785156 59.304688 C 113.59375 64.136719 108.617188 63.773438 108.617188 63.773438"/><path fill="#D57961" d="M 191.183594 151.363281 C 179.390625 149.261719 171.03125 129.480469 167.40625 119.054688 C 166.425781 121.867188 165.78125 124.957031 165.53125 128.355469 C 162.492188 169.679688 207.832031 226.011719 207.832031 226.011719 L 211.773438 224.71875 Z M 367.71875 209.460938 L 343.554688 220.136719 C 343.554688 220.136719 320.074219 196.453125 314.863281 182.742188 C 314.863281 182.742188 302.59375 176.65625 294.242188 171.265625 C 296.789062 154.378906 311.53125 146.3125 321.316406 142.78125 C 329.957031 156.75 336.808594 169.355469 336.808594 169.355469 C 336.808594 169.355469 358.851562 184.433594 367.71875 209.460938"/><path fill="#100F0D" d="M 315.132812 60.730469 C 311.351562 67.867188 307.152344 70.171875 304.925781 70.914062 C 302.667969 66.289062 312.101562 68.394531 312.03125 54.59375 C 312.007812 50.113281 311.128906 45.777344 309.585938 41.917969 C 313.476562 46.199219 318.792969 53.832031 315.132812 60.730469 Z M 266.296875 34.695312 L 265.449219 34.792969 C 264.613281 27.265625 272.480469 24.664062 272.5625 24.636719 L 272.820312 25.449219 C 272.519531 25.542969 265.539062 27.871094 266.296875 34.695312 Z M 260.6875 34.226562 L 259.863281 34.007812 C 259.875 33.96875 260.863281 29.988281 258.527344 26.601562 C 256.707031 23.96875 253.378906 22.363281 248.644531 21.839844 L 248.738281 20.996094 C 253.734375 21.542969 257.265625 23.269531 259.234375 26.128906 C 261.785156 29.835938 260.734375 34.046875 260.6875 34.226562 Z M 226.070312 22.132812 C 227.898438 19.902344 230.582031 17.738281 234.496094 16.007812 C 245.4375 11.179688 250.660156 15.492188 252.480469 17.722656 C 250.945312 17.863281 249.386719 17.742188 247.863281 17.328125 C 241.148438 15.496094 232.617188 17.394531 226.070312 22.132812 Z M 210.738281 66.507812 C 206.101562 71.628906 204.941406 77.492188 205.226562 82.71875 C 204.9375 81.003906 204.828125 79.25 204.90625 77.488281 C 205.128906 72.757812 206.742188 68.675781 209.117188 66.847656 C 212.703125 64.085938 215.394531 59.757812 216.929688 56.851562 C 216.414062 59.265625 214.765625 62.058594 210.738281 66.507812 Z M 308.53125 39.570312 C 305.089844 32.6875 299.402344 27.832031 292.707031 27.433594 C 281.742188 26.78125 284.429688 19.824219 272.691406 15.039062 C 266.402344 12.472656 261.257812 14.03125 257.835938 16.027344 C 256.460938 16.832031 254.96875 17.347656 253.4375 17.605469 C 251.738281 15.375 246.105469 9.953125 234.15625 15.226562 C 228.675781 17.648438 225.519531 20.90625 223.71875 24.039062 C 219.765625 27.621094 216.875 32.386719 216.140625 38.09375 C 214.972656 47.128906 216.960938 50.902344 217.109375 54.566406 C 215.976562 56.980469 212.910156 62.847656 208.597656 66.171875 C 206.03125 68.152344 204.289062 72.472656 204.058594 77.453125 C 203.867188 81.609375 204.65625 85.644531 206.300781 89.25 C 207.585938 93.988281 209.511719 97.25 209.511719 97.25 L 218.167969 99.472656 C 215.953125 94.480469 208.925781 76.867188 217.484375 71.871094 C 226.980469 66.332031 230.902344 54.070312 231.148438 47.644531 C 231.1875 46.558594 231.160156 45.398438 231.125 44.171875 C 230.972656 38.09375 230.777344 30.523438 239.992188 26.535156 C 243.042969 25.214844 245.640625 25.179688 247.707031 26.4375 C 251.730469 28.882812 252.226562 35.292969 252.246094 35.5625 L 251.398438 35.625 C 251.394531 35.5625 250.910156 29.378906 247.261719 27.164062 C 245.449219 26.0625 243.113281 26.113281 240.328125 27.316406 C 231.640625 31.078125 231.820312 38.023438 231.976562 44.152344 C 232.011719 45.390625 232.039062 46.5625 232 47.679688 C 231.746094 54.285156 227.699219 66.894531 217.914062 72.605469 C 209.683594 77.410156 217.546875 96.023438 219.230469 99.746094 L 223.230469 100.773438 C 222.703125 95.59375 221.964844 86.433594 222.785156 81.832031 C 223.988281 75.074219 231.476562 74.648438 231.550781 74.644531 L 231.589844 75.496094 C 231.3125 75.511719 224.707031 75.898438 223.625 81.980469 C 222.816406 86.515625 223.59375 95.917969 224.113281 101 L 295.480469 119.328125 C 294.359375 115.433594 292.101562 106.347656 292.28125 96.917969 C 292.429688 89.226562 295.769531 86.273438 298.207031 84.113281 C 299.851562 82.664062 301.035156 81.613281 300.957031 79.707031 C 300.871094 77.648438 299.886719 76.195312 298.75 74.511719 C 297.113281 72.09375 295.257812 69.355469 295.851562 64.171875 C 296.207031 61.042969 297.839844 58.332031 299.425781 55.707031 C 302.3125 50.917969 305.039062 46.390625 300.480469 39.523438 C 298.863281 37.078125 296.679688 35.601562 294 35.132812 C 286.878906 33.894531 278.449219 40.109375 278.367188 40.171875 L 277.859375 39.488281 C 278.195312 39.238281 285.800781 33.644531 292.964844 34.164062 C 282.277344 29.582031 270.703125 36.359375 270.574219 36.433594 L 270.140625 35.703125 C 270.28125 35.621094 284.285156 27.390625 296.0625 34.820312 C 298.113281 35.597656 299.835938 37.011719 301.195312 39.054688 C 306.042969 46.371094 303.050781 51.339844 300.152344 56.144531 C 298.621094 58.691406 297.035156 61.324219 296.699219 64.265625 C 296.140625 69.140625 297.824219 71.628906 299.453125 74.035156 C 300.613281 75.75 301.710938 77.371094 301.808594 79.671875 C 301.902344 81.984375 300.453125 83.269531 298.773438 84.753906 C 296.320312 86.921875 293.273438 89.617188 293.132812 96.933594 C 292.945312 106.679688 295.398438 116.050781 296.4375 119.574219 L 302.6875 121.175781 C 302.6875 121.175781 295.078125 107.910156 305.292969 98.253906 C 315.179688 88.914062 308.183594 76.691406 305.347656 71.691406 C 307.78125 70.859375 312.027344 68.402344 315.886719 61.128906 C 320.433594 52.550781 312.390625 43.304688 308.53125 39.570312"/><path fill="#FFF" d="M 308.121094 227.242188 L 251.269531 214.484375 L 259.910156 193.820312 C 259.910156 193.820312 262.984375 176.332031 255.230469 176.160156 C 251.539062 176.074219 246.609375 179.832031 245.300781 188.492188 C 243.867188 198.015625 246.246094 212.53125 246.246094 212.53125 L 214.660156 223.765625 L 211.773438 224.71875 L 191.183594 151.363281 C 179.390625 149.261719 171.03125 129.480469 167.40625 119.054688 C 178.183594 87.714844 229.433594 91.378906 229.433594 91.378906 L 277.015625 101.785156 C 277.015625 101.785156 296.167969 105.953125 309.421875 124.65625 C 313.449219 130.339844 317.550781 136.6875 321.316406 142.78125 C 311.53125 146.3125 296.789062 154.378906 294.242188 171.265625 C 291.210938 169.304688 288.691406 167.429688 287.464844 165.984375 L 276.3125 186.425781 C 276.3125 186.425781 300.945312 207.367188 308.121094 227.242188"/><path fill="#3E5BB2" d="M 243.019531 175.007812 L 219.21875 164.386719 L 232.257812 128.566406 L 250.199219 133.464844 L 243.019531 175.007812"/><path fill="#100F0D" d="M 276.105469 185.917969 L 272.382812 184.773438 L 272.132812 185.589844 L 276.101562 186.808594 C 277.367188 187.894531 300.230469 207.769531 307.449219 226.652344 L 251.855469 214.183594 L 260.304688 193.984375 L 260.328125 193.894531 C 260.417969 193.40625 262.390625 181.875 258.765625 177.453125 C 257.855469 176.34375 256.667969 175.769531 255.238281 175.734375 C 251.046875 175.667969 246.15625 179.96875 244.882812 188.425781 C 243.578125 197.082031 245.421875 209.960938 245.769531 212.246094 L 214.527344 223.359375 L 212.0625 224.171875 L 191.59375 151.25 C 187.160156 134.078125 206.492188 119.539062 206.683594 119.394531 L 206.179688 118.710938 C 205.980469 118.855469 186.699219 133.367188 190.625 150.800781 C 189.011719 150.421875 187.460938 149.714844 185.980469 148.734375 L 189.402344 139.6875 L 188.609375 139.386719 L 185.261719 148.238281 C 182.398438 146.148438 179.804688 143.082031 177.507812 139.589844 L 184.550781 131.238281 L 183.898438 130.691406 L 177.027344 138.84375 C 175.085938 135.789062 173.363281 132.449219 171.882812 129.175781 L 178.113281 122.941406 L 177.511719 122.335938 L 171.507812 128.34375 C 170.039062 125.027344 168.816406 121.804688 167.855469 119.054688 C 178.507812 88.53125 228.890625 91.765625 229.34375 91.789062 L 276.921875 102.203125 C 277.113281 102.242188 296.074219 106.558594 309.074219 124.902344 C 312.609375 129.894531 316.515625 135.832031 320.679688 142.554688 C 318.929688 143.207031 316.960938 144.03125 314.902344 145.058594 L 310.175781 140.328125 L 309.574219 140.929688 L 314.101562 145.460938 C 311.238281 146.949219 308.234375 148.835938 305.433594 151.1875 L 300.046875 145.992188 L 299.457031 146.605469 L 304.78125 151.742188 C 302.105469 154.085938 299.652344 156.882812 297.707031 160.1875 L 292.046875 156.59375 L 291.589844 157.3125 L 297.28125 160.925781 C 295.722656 163.757812 294.546875 166.949219 293.925781 170.546875 C 290.894531 168.558594 288.835938 166.9375 287.804688 165.71875 L 282.394531 157.269531 L 281.679688 157.730469 L 286.972656 166 Z M 294.011719 171.625 L 294.566406 171.980469 L 294.664062 171.328125 C 297.226562 154.335938 312.554688 146.394531 321.460938 143.179688 L 321.953125 143 L 321.679688 142.554688 C 317.398438 135.628906 313.390625 129.527344 309.769531 124.410156 C 296.570312 105.785156 277.296875 101.410156 277.105469 101.371094 L 229.464844 90.953125 C 228.949219 90.914062 177.761719 87.628906 167 118.914062 L 166.953125 119.054688 L 167.003906 119.191406 C 170.890625 130.375 179.136719 149.382812 190.84375 151.734375 L 211.484375 225.265625 L 214.804688 224.167969 L 246.722656 212.808594 L 246.664062 212.460938 C 246.640625 212.316406 244.316406 197.90625 245.722656 188.558594 C 246.925781 180.585938 251.417969 176.5 255.21875 176.589844 C 256.40625 176.613281 257.351562 177.074219 258.105469 177.996094 C 261.378906 181.980469 259.632812 192.898438 259.5 193.703125 L 250.679688 214.792969 L 308.78125 227.828125 L 308.519531 227.09375 C 301.785156 208.449219 279.53125 188.664062 276.851562 186.332031 L 287.554688 166.710938 C 288.800781 168.007812 290.96875 169.652344 294.011719 171.625"/><path fill="#D57961" d="M 292.574219 76.695312 C 291.382812 83.113281 283.773438 87.464844 281.492188 87.140625 C 281.492188 87.140625 276.277344 95.082031 272.6875 98.011719 L 278.558594 103.128906 C 278.558594 103.128906 264.753906 125.304688 252.367188 123.242188 L 250.199219 133.464844 C 250.199219 133.464844 236.5 136.621094 232.257812 128.566406 L 235.851562 119 C 235.851562 119 223.566406 112.585938 229.433594 91.378906 L 234.328125 90.292969 C 234.328125 90.292969 232.914062 87.355469 232.691406 80.941406 C 232.691406 80.941406 232.664062 80.390625 232.65625 79.425781 C 227.074219 76.585938 227.625 65.285156 229.871094 63.976562 C 231.445312 63.054688 232.777344 64.433594 233.589844 65.671875 C 234.316406 60.71875 235.578125 55.207031 237.765625 50.203125 L 237.765625 50.707031 C 237.765625 50.707031 242.148438 45.375 247.582031 42.65625 C 253.019531 39.9375 278.339844 44.183594 281.824219 55.820312 C 285.292969 67.457031 283.917969 75.074219 283.917969 75.074219 L 286.496094 73.222656 C 286.496094 73.222656 293.773438 70.285156 292.574219 76.695312"/><path fill="#FFF" d="M 250.410156 74.632812 C 250.410156 74.632812 248.566406 65.277344 241.5 66.257812 C 234.433594 67.238281 242.476562 81.769531 250.410156 74.632812 Z M 261.824219 76.804688 C 261.824219 76.804688 267.6875 68.433594 274.320312 73.109375 C 280.953125 77.785156 268.34375 87.789062 261.824219 76.804688"/><path fill="#100F0D" d="M 279.011719 54 C 279.988281 54.414062 280.71875 55.574219 280.550781 56.425781 C 280.402344 57.199219 279.539062 57.378906 278.84375 57.394531 C 278.03125 57.40625 277.519531 57.191406 277.253906 56.738281 C 276.902344 56.136719 276.972656 55.183594 277.238281 54.160156 C 277.800781 53.800781 278.402344 53.738281 279.011719 54 Z M 251.824219 35.59375 C 245.011719 38.066406 240.609375 43.707031 237.765625 50.203125 L 236.609375 52.175781 C 236.609375 52.175781 241.550781 46.117188 246.675781 43.152344 C 246.816406 43.269531 246.964844 43.398438 247.117188 43.523438 C 246.613281 45.011719 246.1875 47.101562 246.992188 48.703125 C 247.578125 49.867188 248.703125 50.585938 250.347656 50.835938 L 250.476562 49.996094 C 249.125 49.789062 248.207031 49.226562 247.753906 48.320312 C 247.132812 47.089844 247.417969 45.421875 247.828125 44.113281 C 250.023438 45.929688 252.976562 48.25 255.519531 49.828125 C 255.140625 50.835938 254.9375 51.980469 255.234375 53.074219 C 255.632812 54.515625 256.828125 55.582031 258.789062 56.246094 L 259.058594 55.4375 C 257.382812 54.875 256.375 54 256.058594 52.847656 C 255.828125 52.011719 255.976562 51.105469 256.269531 50.277344 C 256.90625 50.648438 257.503906 50.953125 258.046875 51.179688 C 258.273438 52.203125 258.890625 54.066406 260.496094 55.242188 C 261.433594 55.925781 262.558594 56.269531 263.855469 56.269531 C 264.445312 56.269531 265.074219 56.199219 265.742188 56.054688 L 265.5625 55.21875 C 263.703125 55.625 262.164062 55.402344 261.003906 54.558594 C 259.859375 53.722656 259.289062 52.429688 259.011719 51.503906 C 262.683594 52.398438 272.238281 51.464844 277.597656 50.828125 C 277.230469 51.589844 276.785156 52.601562 276.488281 53.648438 C 276.195312 53.882812 275.898438 54.195312 275.613281 54.605469 C 274.824219 55.71875 274.605469 56.839844 274.960938 57.933594 C 275.878906 60.761719 280.398438 62.324219 280.59375 62.386719 L 280.863281 61.582031 C 280.820312 61.566406 276.558594 60.089844 275.769531 57.667969 C 275.519531 56.894531 275.652344 56.113281 276.179688 55.285156 C 276.128906 55.996094 276.210938 56.652344 276.519531 57.167969 C 276.949219 57.90625 277.726562 58.261719 278.859375 58.246094 C 280.859375 58.203125 281.292969 57.074219 281.386719 56.589844 C 281.632812 55.335938 280.699219 53.792969 279.34375 53.214844 C 278.996094 53.0625 278.335938 52.875 277.574219 53.082031 C 277.878906 52.226562 278.261719 51.394531 278.589844 50.757812 C 280.117188 52.253906 281.261719 53.9375 281.824219 55.820312 C 285.292969 67.457031 283.917969 75.074219 283.917969 75.074219 L 286.496094 73.222656 C 296.601562 51.140625 272.796875 27.980469 251.824219 35.59375"/><path fill="#100F0D" d="M 258.402344 98.660156 L 258.144531 97.851562 C 252.742188 99.574219 249.148438 97.890625 249.109375 97.875 L 248.742188 98.636719 C 248.84375 98.691406 250.527344 99.488281 253.324219 99.488281 C 254.746094 99.488281 256.460938 99.28125 258.402344 98.660156 Z M 181.554688 145.152344 L 175.539062 143.792969 L 175.355469 144.625 L 181.371094 145.984375 Z M 328.328125 174.011719 L 327.476562 174.011719 L 327.476562 179.175781 L 328.328125 179.175781 Z M 271.796875 99.085938 L 270.222656 102.96875 L 271.015625 103.289062 L 273.597656 96.90625 L 272.453125 97.65625 C 272.316406 97.75 258.25 106.929688 252.125 105.679688 C 245.507812 104.324219 239.804688 99.222656 234.695312 90.082031 L 233.746094 88.378906 L 234.242188 94.53125 L 235.089844 94.460938 L 234.902344 92.140625 C 239.902344 100.480469 245.492188 105.191406 251.957031 106.515625 C 252.394531 106.605469 252.867188 106.648438 253.371094 106.644531 C 259.128906 106.644531 268.542969 101.109375 271.796875 99.085938 Z M 245.140625 79.6875 C 244.960938 79.6875 244.8125 79.835938 244.8125 80.015625 C 244.8125 80.195312 244.960938 80.339844 245.140625 80.339844 C 245.320312 80.339844 245.464844 80.195312 245.464844 80.015625 C 245.464844 79.835938 245.320312 79.6875 245.140625 79.6875 Z M 241.230469 79.6875 C 240.984375 79.6875 240.792969 79.882812 240.792969 80.125 C 240.792969 80.363281 240.984375 80.558594 241.230469 80.558594 C 241.46875 80.558594 241.660156 80.363281 241.660156 80.125 C 241.660156 79.882812 241.46875 79.6875 241.230469 79.6875 Z M 238.277344 75.566406 C 237.992188 75.566406 237.765625 75.796875 237.765625 76.078125 C 237.765625 76.355469 237.992188 76.585938 238.277344 76.585938 C 238.554688 76.585938 238.78125 76.355469 238.78125 76.078125 C 238.78125 75.796875 238.554688 75.566406 238.277344 75.566406 Z M 271.785156 83.996094 C 271.5625 83.996094 271.386719 84.175781 271.386719 84.398438 C 271.386719 84.621094 271.5625 84.800781 271.785156 84.800781 C 272.007812 84.800781 272.183594 84.621094 272.183594 84.398438 C 272.183594 84.175781 272.007812 83.996094 271.785156 83.996094 Z M 268.195312 86.324219 C 267.914062 86.324219 267.6875 86.550781 267.6875 86.824219 C 267.6875 87.105469 267.914062 87.328125 268.195312 87.328125 C 268.472656 87.328125 268.695312 87.105469 268.695312 86.824219 C 268.695312 86.550781 268.472656 86.324219 268.195312 86.324219 Z M 264.664062 83.441406 C 264.355469 83.441406 264.105469 83.691406 264.105469 83.996094 C 264.105469 84.304688 264.355469 84.554688 264.664062 84.554688 C 264.96875 84.554688 265.21875 84.304688 265.21875 83.996094 C 265.21875 83.691406 264.96875 83.441406 264.664062 83.441406 Z M 251.261719 63.359375 C 251.261719 63.359375 251.207031 60.09375 250.066406 59.335938 C 248.925781 58.574219 242.621094 54.984375 241.808594 56.453125 C 240.992188 57.921875 241.808594 60.476562 242.894531 60.640625 C 243.980469 60.804688 251.503906 65.449219 251.261719 63.359375 Z M 267.097656 62.417969 C 266.484375 62.5 265.90625 62.726562 265.40625 63.085938 C 264.210938 63.949219 262.253906 65.570312 263.699219 66.09375 C 265.699219 66.820312 273.957031 66.605469 274.972656 65.335938 C 275.964844 64.09375 279.867188 60.671875 267.097656 62.417969 Z M 233.265625 72.230469 C 233.191406 68.625 230.714844 66 230.613281 65.890625 L 230 66.480469 C 230.023438 66.507812 232.347656 68.972656 232.414062 72.246094 Z M 290.992188 76 L 291.050781 75.148438 C 290.996094 75.140625 285.875 74.84375 283.535156 79.902344 L 284.308594 80.261719 C 286.398438 75.746094 290.800781 75.980469 290.992188 76 Z M 264.503906 94.074219 C 264.21875 94.054688 263.117188 93.308594 262.097656 92.433594 L 261.546875 93.082031 C 261.765625 93.269531 262.105469 93.550781 262.476562 93.832031 C 259.765625 94.730469 251.058594 97 244.03125 91.90625 L 243.53125 92.59375 C 247.113281 95.195312 251.101562 95.964844 254.578125 95.964844 C 258.832031 95.964844 262.300781 94.816406 263.332031 94.433594 C 263.785156 94.714844 264.210938 94.925781 264.503906 94.925781 Z M 256.886719 88.617188 L 253.410156 86.660156 L 252.992188 87.402344 L 256.46875 89.359375 Z M 249.804688 87.46875 C 249.109375 87.023438 248.757812 86.515625 248.730469 85.910156 C 248.667969 84.441406 250.554688 82.667969 251.285156 82.109375 L 250.769531 81.429688 C 250.644531 81.523438 247.785156 83.730469 247.882812 85.945312 C 247.917969 86.84375 248.414062 87.59375 249.347656 88.1875 Z M 244.289062 65.789062 C 238.78125 64.84375 237.765625 63.976562 237.765625 63.976562 C 237.765625 63.976562 238.328125 67.808594 239.136719 67.773438 C 239.136719 67.773438 242.332031 66.386719 245.230469 67.308594 C 246.378906 67.675781 247.425781 68.902344 248.277344 70.246094 C 248.242188 70.246094 242.785156 70.152344 242.742188 75.699219 C 242.742188 75.699219 246.550781 78.765625 250.410156 74.632812 C 250.410156 74.632812 249.796875 66.730469 244.289062 65.789062 Z M 278.628906 72.53125 C 278.628906 72.53125 277.980469 76.011719 276.527344 76.082031 C 276.527344 76.082031 276.40625 75.746094 276.125 75.289062 L 276.527344 76.082031 C 274.71875 83.675781 268.113281 81.664062 268.113281 81.664062 C 268.34375 73.769531 274.175781 74.191406 275.4375 74.375 C 274.488281 73.335938 272.851562 72.304688 270.226562 72.820312 C 265.445312 73.761719 261.824219 76.804688 261.824219 76.804688 C 261.824219 76.804688 264.140625 72.285156 268.632812 71.390625 C 273.125 70.5 274.792969 73.253906 278.628906 72.53125"/><path fill="#100F0D" d="M 227.902344 95.960938 L 222.070312 95.140625 L 221.949219 95.984375 L 227.785156 96.804688 Z M 231.183594 115.824219 L 225.714844 119.632812 L 226.199219 120.332031 L 231.671875 116.523438 Z M 281.828125 113.9375 L 282.246094 113.195312 L 274.9375 109.070312 C 277.261719 106.027344 278.738281 103.644531 278.917969 103.351562 L 278.191406 102.90625 C 278.054688 103.128906 264.363281 125.238281 252.453125 122.828125 L 252.03125 122.742188 L 246.84375 148.351562 L 247.675781 148.523438 L 252.703125 123.734375 C 254.550781 124.03125 256.417969 123.796875 258.257812 123.191406 L 259.867188 128.796875 L 260.6875 128.5625 L 259.058594 122.902344 C 261.113281 122.113281 263.125 120.882812 265.03125 119.410156 L 268.976562 124.90625 L 269.667969 124.40625 L 265.699219 118.878906 C 267.273438 117.597656 268.777344 116.175781 270.160156 114.714844 L 274.988281 119.839844 L 275.609375 119.253906 L 270.738281 114.09375 C 272.097656 112.617188 273.335938 111.128906 274.414062 109.753906 Z M 236.042969 118.621094 L 236.382812 118.792969 L 227.40625 142.925781 L 226.605469 142.628906 L 235.324219 119.207031 C 231.589844 117.1875 229.496094 113.992188 228.394531 110.476562 L 222.511719 111.792969 L 222.328125 110.964844 L 228.152344 109.660156 C 227.613281 107.636719 227.386719 105.535156 227.347656 103.496094 L 221.234375 102.785156 L 221.332031 101.941406 L 227.339844 102.636719 C 227.371094 96.570312 228.992188 91.351562 229.027344 91.246094 L 229.839844 91.503906 C 229.773438 91.710938 223.40625 112.195312 236.042969 118.621094"/><path fill="#3E5BB2" d="M 235.417969 93.054688 C 235.417969 95.167969 233.707031 96.882812 231.589844 96.882812 C 229.480469 96.882812 227.765625 95.167969 227.765625 93.054688 C 227.765625 90.9375 229.480469 89.226562 231.589844 89.226562 C 233.707031 89.226562 235.417969 90.9375 235.417969 93.054688 Z M 238.53125 101.042969 C 238.53125 103.15625 236.820312 104.871094 234.707031 104.871094 C 232.59375 104.871094 230.882812 103.15625 230.882812 101.042969 C 230.882812 98.929688 232.59375 97.214844 234.707031 97.214844 C 236.820312 97.214844 238.53125 98.929688 238.53125 101.042969 Z M 243.007812 108.019531 C 243.007812 110.132812 241.296875 111.847656 239.183594 111.847656 C 237.070312 111.847656 235.359375 110.132812 235.359375 108.019531 C 235.359375 105.902344 237.070312 104.191406 239.183594 104.191406 C 241.296875 104.191406 243.007812 105.902344 243.007812 108.019531 Z M 275.339844 104.453125 C 275.339844 106.566406 273.628906 108.28125 271.515625 108.28125 C 269.402344 108.28125 267.6875 106.566406 267.6875 104.453125 C 267.6875 102.339844 269.402344 100.625 271.515625 100.625 C 273.628906 100.625 275.339844 102.339844 275.339844 104.453125 Z M 268.328125 109.984375 C 268.328125 112.097656 266.617188 113.8125 264.503906 113.8125 C 262.390625 113.8125 260.679688 112.097656 260.679688 109.984375 C 260.679688 107.871094 262.390625 106.15625 264.503906 106.15625 C 266.617188 106.15625 268.328125 107.871094 268.328125 109.984375 Z M 260.277344 112.699219 C 260.277344 114.8125 258.5625 116.523438 256.453125 116.523438 C 254.339844 116.523438 252.625 114.8125 252.625 112.699219 C 252.625 110.585938 254.339844 108.871094 256.453125 108.871094 C 258.5625 108.871094 260.277344 110.585938 260.277344 112.699219 Z M 247.414062 109.253906 C 245.300781 109.253906 243.589844 110.96875 243.589844 113.082031 C 243.589844 115.195312 245.300781 116.910156 247.414062 116.910156 C 249.527344 116.910156 251.238281 115.195312 251.238281 113.082031 C 251.238281 110.96875 249.527344 109.253906 247.414062 109.253906 Z M 287.597656 72.867188 L 285.863281 73.675781 C 289.105469 67.039062 288.683594 57.550781 284.980469 50.25 C 280.941406 42.273438 273.671875 36.980469 264.511719 35.335938 C 244.8125 31.804688 236.414062 53.6875 236.339844 53.890625 L 236.027344 51.832031 C 236.105469 51.609375 243.703125 29.875 264.8125 33.660156 C 274.511719 35.402344 282.210938 41.015625 286.5 49.476562 C 290.5 57.367188 291.125 65.65625 287.597656 72.867188"/><path fill="#100F0D" d="M 374.300781 281.164062 L 288.988281 303.285156 L 222.160156 320.613281 L 201.363281 326.003906 L 175.570312 332.691406 L 26.960938 371.230469 L 26.746094 370.414062 L 174.878906 331.996094 L 200.785156 325.28125 L 221.769531 319.839844 L 288.988281 302.410156 L 374.089844 280.335938 L 374.300781 281.164062"/><path fill="#100F0D" d="M 168.136719 334.34375 C 167.898438 333.898438 144.324219 289.628906 154.691406 257.925781 C 165.09375 226.121094 219.433594 221.175781 219.980469 221.128906 L 220.050781 221.976562 C 219.507812 222.023438 165.730469 226.925781 155.503906 258.1875 C 145.25 289.546875 168.648438 333.5 168.890625 333.9375 L 168.136719 334.34375"/><path fill="#100F0D" d="M 258.273438 152.785156 C 255.726562 146.753906 251.40625 146.726562 248.695312 147.449219 C 250.152344 146.386719 252.167969 145.429688 254.167969 146.21875 C 258.515625 147.933594 263.082031 157.566406 262.265625 191.46875 C 261.410156 174.421875 260.113281 157.15625 258.273438 152.785156 Z M 257.988281 192.203125 C 257.988281 194.71875 255.925781 196.773438 253.417969 196.773438 C 253.195312 196.773438 252.972656 196.757812 252.761719 196.71875 C 250.5625 196.40625 247.332031 195.167969 247.332031 192.878906 L 247.914062 187.800781 C 247.914062 185.292969 250.667969 181.859375 253.171875 181.859375 C 254.042969 181.859375 255.101562 183.3125 255.800781 183.746094 C 256.105469 183.925781 256.386719 184.148438 256.640625 184.40625 C 257.476562 185.238281 257.988281 186.378906 257.988281 187.632812 Z M 244.066406 147.359375 C 236.945312 143.929688 230.78125 142.082031 225.460938 141.542969 C 234.105469 141.496094 240.917969 145.242188 244.066406 147.359375 Z M 263.636719 229.492188 C 263.636719 229.492188 263.363281 216.847656 262.734375 201.757812 C 264.421875 167.199219 261.648438 148.253906 254.476562 145.429688 C 250.898438 144.015625 247.492188 147.148438 246.335938 148.386719 C 246.277344 148.417969 246.246094 148.4375 246.246094 148.4375 L 246.523438 148.117188 C 246.382812 147.992188 233.960938 137.414062 217.828125 141.703125 C 178.707031 148.125 198.863281 242.976562 198.863281 242.976562 L 223.257812 237.894531 C 218.960938 230.59375 219.242188 223.03125 219.25 222.898438 L 220.234375 222.386719 C 220.226562 222.515625 219.894531 230.324219 224.292969 237.683594 L 259.648438 230.320312 C 260.234375 223.828125 259.648438 218.214844 259.648438 218.214844 L 260.433594 218.417969 C 260.484375 218.84375 261.046875 224.027344 260.554688 230.132812 L 263.636719 229.492188"/><path fill="#FFF" d="M 208.242188 234.300781 C 208.148438 233.976562 198.726562 201.449219 200.007812 175.863281 C 201.28125 150.636719 221.183594 150.585938 222.003906 150.601562 L 222.015625 149.75 C 222.015625 149.75 222.007812 149.75 222.003906 149.75 C 221.367188 149.75 200.457031 150.023438 199.160156 175.820312 C 197.867188 201.546875 207.328125 234.210938 207.425781 234.542969 Z M 215.726562 230.304688 L 209.097656 201.457031 L 209.925781 201.265625 L 216.558594 230.117188 L 215.726562 230.304688"/><g clip-path="url(#a)"><path fill="#FFF" d="M 217.339844 369.316406 C 217.339844 369.316406 210.832031 372.953125 217.339844 381.585938 C 223.84375 390.214844 243.910156 399.011719 251.273438 392.78125 C 258.644531 386.550781 253.058594 367.117188 234.464844 363.546875 C 215.871094 359.96875 217.339844 369.316406 217.339844 369.316406 Z M 357.027344 297.351562 L 347.425781 321.722656 L 257.738281 346.722656 C 252.929688 349.113281 251.519531 346.4375 251.519531 346.4375 C 251.519531 346.4375 241.335938 325.289062 239.683594 322.992188 C 238.03125 320.699219 241.316406 319.242188 241.316406 319.242188 L 276.710938 309.273438 L 340.667969 293.359375 L 357.027344 297.351562"/></g><g clip-path="url(#b)"><path fill="#100F0D" d="M 251.003906 392.457031 C 250.789062 392.636719 250.554688 392.800781 250.316406 392.953125 C 249.640625 390.519531 247.109375 382.261719 243.558594 380.652344 C 247.648438 379 251.65625 379.101562 252.953125 379.191406 C 253.132812 379.699219 253.292969 380.199219 253.421875 380.6875 C 254.707031 385.59375 253.777344 390.109375 251.003906 392.457031 Z M 241.980469 394.320312 C 239.417969 394.035156 236.628906 393.296875 233.855469 392.25 C 235.324219 386.292969 238.71875 383.011719 242.28125 381.230469 C 242.304688 381.230469 242.328125 381.230469 242.355469 381.230469 C 245.558594 381.230469 248.542969 389.683594 249.550781 393.382812 C 247.632812 394.335938 245.058594 394.667969 241.980469 394.320312 Z M 217.675781 381.328125 C 215.417969 378.332031 214.519531 375.648438 214.996094 373.351562 C 215.511719 370.867188 217.527344 369.699219 217.546875 369.6875 L 217.804688 369.542969 L 217.757812 369.253906 C 217.753906 369.230469 217.449219 367.117188 219.222656 365.398438 C 220.398438 364.265625 222.652344 363.160156 226.996094 363.160156 C 228.988281 363.160156 231.417969 363.394531 234.382812 363.960938 C 244.414062 365.894531 250.242188 372.460938 252.632812 378.335938 C 250.847656 378.273438 246.492188 378.378906 242.257812 380.378906 C 242.257812 380.378906 242.253906 380.378906 242.246094 380.378906 L 242.246094 380.382812 C 238.386719 382.214844 234.648438 385.628906 233.0625 391.941406 C 226.8125 389.445312 220.761719 385.417969 217.675781 381.328125 Z M 254.246094 380.472656 C 252.523438 373.886719 246.328125 365.394531 234.546875 363.128906 C 226.691406 361.617188 221.332031 362.175781 218.632812 364.789062 C 216.929688 366.433594 216.851562 368.375 216.890625 369.097656 C 216.273438 369.515625 214.660156 370.8125 214.164062 373.160156 C 213.628906 375.710938 214.582031 378.632812 217 381.84375 C 221.699219 388.078125 233.09375 394.179688 241.882812 395.164062 C 242.71875 395.257812 243.519531 395.304688 244.28125 395.304688 C 247.347656 395.304688 249.835938 394.558594 251.550781 393.105469 C 254.582031 390.542969 255.613281 385.703125 254.246094 380.472656 Z M 339.554688 299.03125 L 334.054688 300.566406 L 332.582031 297.710938 L 337.589844 296.304688 C 337.859375 296.230469 338.207031 296.410156 338.355469 296.707031 Z M 341.480469 302.78125 L 335.980469 304.320312 L 334.4375 301.316406 L 339.9375 299.777344 Z M 343.3125 306.339844 L 337.8125 307.878906 L 336.363281 305.066406 L 341.863281 303.527344 Z M 345.140625 309.898438 L 339.640625 311.441406 L 338.195312 308.628906 L 343.695312 307.085938 Z M 346.570312 312.683594 C 346.722656 312.980469 346.625 313.28125 346.355469 313.359375 L 341.347656 314.761719 L 340.027344 312.1875 L 345.523438 310.648438 Z M 333.375 300.761719 L 330.042969 301.691406 L 328.574219 298.832031 L 331.902344 297.898438 Z M 335.300781 304.511719 L 331.972656 305.441406 L 330.429688 302.441406 L 333.757812 301.507812 Z M 337.132812 308.070312 L 333.800781 309.003906 L 332.355469 306.191406 L 335.6875 305.261719 Z M 338.960938 311.628906 L 335.628906 312.5625 L 334.183594 309.75 L 337.515625 308.816406 Z M 340.667969 314.953125 L 337.335938 315.886719 L 336.011719 313.308594 L 339.34375 312.378906 Z M 329.359375 301.882812 L 325.871094 302.859375 L 324.402344 300.003906 L 327.890625 299.023438 Z M 331.289062 305.636719 L 327.800781 306.613281 L 326.253906 303.609375 L 329.746094 302.632812 Z M 333.117188 309.195312 L 329.628906 310.171875 L 328.183594 307.359375 L 331.675781 306.382812 Z M 334.949219 312.753906 L 331.460938 313.730469 L 330.011719 310.921875 L 333.503906 309.941406 Z M 336.65625 316.074219 L 333.164062 317.054688 L 331.84375 314.476562 L 335.332031 313.503906 Z M 325.191406 303.054688 L 321.976562 303.953125 L 320.503906 301.089844 L 323.71875 300.191406 Z M 327.121094 306.804688 L 323.902344 307.703125 L 322.359375 304.699219 L 325.578125 303.800781 Z M 328.949219 310.363281 L 325.734375 311.261719 L 324.289062 308.453125 L 327.5 307.550781 Z M 330.777344 313.925781 L 327.566406 314.824219 L 326.117188 312.011719 L 329.335938 311.109375 Z M 332.488281 317.242188 L 329.269531 318.144531 L 327.949219 315.570312 L 331.164062 314.671875 Z M 321.296875 304.140625 L 318.242188 305 L 316.769531 302.140625 L 319.828125 301.285156 Z M 323.226562 307.894531 L 320.167969 308.75 L 318.625 305.746094 L 321.679688 304.890625 Z M 325.054688 311.453125 L 321.996094 312.308594 L 320.550781 309.496094 L 323.609375 308.640625 Z M 326.882812 315.011719 L 323.828125 315.867188 L 322.378906 313.058594 L 325.4375 312.203125 Z M 328.589844 318.335938 L 325.535156 319.191406 L 324.210938 316.617188 L 327.269531 315.761719 Z M 317.558594 305.191406 L 314.546875 306.035156 L 313.074219 303.171875 L 316.089844 302.328125 Z M 319.488281 308.941406 L 316.472656 309.785156 L 314.929688 306.78125 L 317.945312 305.9375 Z M 321.316406 312.5 L 318.304688 313.34375 L 316.855469 310.53125 L 319.871094 309.6875 Z M 323.144531 316.0625 L 320.132812 316.90625 L 318.6875 314.089844 L 321.703125 313.246094 Z M 324.855469 319.382812 L 321.839844 320.222656 L 320.519531 317.652344 L 323.53125 316.808594 Z M 313.867188 306.226562 L 310.417969 307.191406 L 308.949219 304.328125 L 312.394531 303.363281 Z M 315.792969 309.976562 L 312.347656 310.941406 L 310.804688 307.933594 L 314.25 306.972656 Z M 317.621094 313.535156 L 314.175781 314.5 L 312.734375 311.6875 L 316.179688 310.722656 Z M 319.453125 317.097656 L 316.003906 318.0625 L 314.5625 315.246094 L 318.007812 314.28125 Z M 321.160156 320.417969 L 317.714844 321.382812 L 316.390625 318.808594 L 319.835938 317.84375 Z M 309.742188 307.378906 L 306.335938 308.335938 L 304.863281 305.472656 L 308.269531 304.519531 Z M 311.664062 311.128906 L 308.265625 312.085938 L 306.722656 309.082031 L 310.121094 308.128906 Z M 313.496094 314.691406 L 310.09375 315.644531 L 308.648438 312.832031 L 312.050781 311.878906 Z M 315.328125 318.25 L 311.925781 319.207031 L 310.480469 316.390625 L 313.878906 315.4375 Z M 317.03125 321.570312 L 313.632812 322.527344 L 312.308594 319.953125 L 315.710938 319 Z M 305.652344 308.523438 L 279.027344 315.984375 L 277.554688 313.125 L 304.1875 305.664062 Z M 307.582031 312.273438 L 304.179688 313.230469 L 302.636719 310.226562 L 306.039062 309.273438 Z M 309.410156 315.835938 L 306.007812 316.785156 L 304.566406 313.976562 L 307.96875 313.023438 Z M 311.242188 319.394531 L 307.839844 320.351562 L 306.394531 317.535156 L 309.796875 316.585938 Z M 312.949219 322.71875 L 309.546875 323.667969 L 308.222656 321.097656 L 311.625 320.144531 Z M 303.5 313.417969 L 300.242188 314.332031 L 298.695312 311.328125 L 301.957031 310.417969 Z M 305.328125 316.980469 L 302.070312 317.890625 L 300.625 315.078125 L 303.882812 314.164062 Z M 307.160156 320.539062 L 303.902344 321.453125 L 302.453125 318.636719 L 305.714844 317.726562 Z M 308.867188 323.863281 L 305.605469 324.773438 L 304.285156 322.199219 L 307.542969 321.285156 Z M 299.5625 314.523438 L 296.476562 315.386719 L 294.933594 312.382812 L 298.019531 311.519531 Z M 301.390625 318.085938 L 298.308594 318.945312 L 296.859375 316.136719 L 299.945312 315.269531 Z M 303.21875 321.640625 L 300.136719 322.507812 L 298.691406 319.691406 L 301.777344 318.832031 Z M 304.929688 324.964844 L 301.84375 325.828125 L 300.523438 323.257812 L 303.605469 322.390625 Z M 295.796875 315.574219 L 292.710938 316.441406 L 291.167969 313.4375 L 294.253906 312.574219 Z M 297.625 319.136719 L 294.542969 320 L 293.097656 317.191406 L 296.179688 316.324219 Z M 299.453125 322.695312 L 296.371094 323.5625 L 294.925781 320.746094 L 298.011719 319.886719 Z M 301.164062 326.019531 L 298.078125 326.882812 L 296.753906 324.308594 L 299.839844 323.445312 Z M 292.027344 316.628906 L 288.816406 317.53125 L 287.269531 314.53125 L 290.484375 313.628906 Z M 293.859375 320.191406 L 290.644531 321.09375 L 289.199219 318.28125 L 292.414062 317.378906 Z M 295.691406 323.75 L 292.472656 324.652344 L 291.03125 321.839844 L 294.242188 320.941406 Z M 297.394531 327.074219 L 294.183594 327.972656 L 292.859375 325.398438 L 296.074219 324.5 Z M 288.132812 317.726562 L 285.167969 318.554688 L 283.621094 315.550781 L 286.589844 314.71875 Z M 289.964844 321.28125 L 286.996094 322.113281 L 285.550781 319.300781 L 288.515625 318.472656 Z M 291.796875 324.84375 L 288.828125 325.675781 L 287.378906 322.859375 L 290.347656 322.03125 Z M 293.5 328.164062 L 290.53125 328.996094 L 289.210938 326.421875 L 292.179688 325.589844 Z M 284.488281 318.746094 L 280.953125 319.734375 L 279.410156 316.734375 L 282.945312 315.742188 Z M 286.316406 322.308594 L 282.78125 323.296875 L 281.335938 320.484375 L 284.867188 319.492188 Z M 288.144531 325.863281 L 284.613281 326.855469 L 283.167969 324.042969 L 286.703125 323.054688 Z M 289.855469 329.1875 L 286.320312 330.175781 L 284.996094 327.601562 L 288.53125 326.613281 Z M 278.34375 316.175781 L 274.914062 317.136719 L 273.4375 314.277344 L 276.875 313.316406 Z M 280.273438 319.929688 L 276.839844 320.890625 L 275.292969 317.886719 L 278.726562 316.921875 Z M 282.101562 323.484375 L 278.671875 324.445312 L 277.222656 321.636719 L 280.65625 320.671875 Z M 283.929688 327.046875 L 280.5 328.007812 L 279.050781 325.191406 L 282.484375 324.234375 Z M 285.640625 330.367188 L 282.207031 331.328125 L 280.886719 328.753906 L 284.316406 327.792969 Z M 274.230469 317.328125 L 270.742188 318.304688 L 269.269531 315.445312 L 272.761719 314.46875 Z M 276.160156 321.078125 L 272.667969 322.058594 L 271.125 319.054688 L 274.613281 318.074219 Z M 277.988281 324.640625 L 274.5 325.613281 L 273.054688 322.804688 L 276.542969 321.824219 Z M 279.816406 328.199219 L 276.328125 329.175781 L 274.882812 326.363281 L 278.371094 325.386719 Z M 281.523438 331.519531 L 278.035156 332.496094 L 276.710938 329.921875 L 280.203125 328.945312 Z M 270.058594 318.496094 L 266.917969 319.375 L 265.449219 316.515625 L 268.589844 315.636719 Z M 271.984375 322.246094 L 268.847656 323.125 L 267.300781 320.125 L 270.441406 319.242188 Z M 273.816406 325.804688 L 270.675781 326.6875 L 269.230469 323.875 L 272.371094 322.992188 Z M 275.648438 329.367188 L 272.503906 330.246094 L 271.0625 327.433594 L 274.199219 326.554688 Z M 277.351562 332.6875 L 274.214844 333.566406 L 272.890625 330.996094 L 276.03125 330.113281 Z M 266.234375 319.570312 L 263.675781 320.285156 L 262.203125 317.421875 L 264.765625 316.707031 Z M 268.164062 323.320312 L 265.601562 324.039062 L 264.058594 321.03125 L 266.621094 320.3125 Z M 269.992188 326.875 L 267.433594 327.59375 L 265.988281 324.785156 L 268.546875 324.066406 Z M 271.828125 330.4375 L 269.261719 331.15625 L 267.816406 328.34375 L 270.378906 327.625 Z M 273.53125 333.757812 L 270.96875 334.476562 L 269.644531 331.902344 L 272.207031 331.1875 Z M 262.992188 320.472656 L 260.195312 321.257812 L 258.726562 318.398438 L 261.523438 317.617188 Z M 264.921875 324.226562 L 262.125 325.007812 L 260.582031 322.003906 L 263.375 321.222656 Z M 266.75 327.785156 L 263.953125 328.570312 L 262.511719 325.753906 L 265.304688 324.972656 Z M 268.582031 331.34375 L 265.785156 332.128906 L 264.339844 329.316406 L 267.132812 328.535156 Z M 270.285156 334.667969 L 267.492188 335.453125 L 266.167969 332.875 L 268.964844 332.09375 Z M 259.519531 321.449219 L 256.492188 322.296875 L 255.023438 319.4375 L 258.046875 318.585938 Z M 261.449219 325.199219 L 258.421875 326.046875 L 256.875 323.046875 L 259.902344 322.199219 Z M 263.277344 328.757812 L 260.246094 329.609375 L 258.804688 326.792969 L 261.828125 325.949219 Z M 265.105469 332.320312 L 262.078125 333.167969 L 260.632812 330.355469 L 263.660156 329.507812 Z M 266.8125 335.640625 L 263.785156 336.488281 L 262.460938 333.914062 L 265.488281 333.066406 Z M 255.8125 322.488281 L 252.496094 323.414062 L 251.023438 320.558594 L 254.339844 319.625 Z M 257.738281 326.242188 L 254.421875 327.167969 L 252.878906 324.164062 L 256.195312 323.234375 Z M 259.570312 329.796875 L 256.253906 330.726562 L 254.804688 327.914062 L 258.121094 326.984375 Z M 261.398438 333.359375 L 258.082031 334.285156 L 256.636719 331.476562 L 259.949219 330.542969 Z M 263.105469 336.679688 L 259.789062 337.609375 L 258.464844 335.035156 L 261.785156 334.105469 Z M 251.8125 323.609375 L 248.4375 324.554688 L 246.96875 321.691406 L 250.34375 320.746094 Z M 253.742188 327.359375 L 250.367188 328.304688 L 248.824219 325.300781 L 252.195312 324.355469 Z M 255.570312 330.917969 L 252.195312 331.859375 L 250.75 329.050781 L 254.125 328.105469 Z M 257.398438 334.480469 L 254.027344 335.421875 L 252.582031 332.609375 L 255.953125 331.664062 Z M 259.105469 337.796875 L 255.734375 338.742188 L 254.410156 336.171875 L 257.785156 335.226562 Z M 247.761719 324.742188 L 244.539062 325.644531 L 243.347656 323.324219 C 243.195312 323.027344 243.285156 322.722656 243.558594 322.648438 L 246.289062 321.886719 Z M 249.683594 328.492188 L 246.464844 329.394531 L 244.921875 326.390625 L 248.140625 325.492188 Z M 251.519531 332.054688 L 248.296875 332.957031 L 246.851562 330.144531 L 250.070312 329.242188 Z M 253.347656 335.613281 L 250.128906 336.515625 L 248.679688 333.703125 L 251.898438 332.800781 Z M 255.050781 338.9375 L 252.324219 339.699219 C 252.054688 339.773438 251.710938 339.59375 251.558594 339.296875 L 250.511719 337.261719 L 253.730469 336.359375 Z M 337.207031 295.558594 L 243.175781 321.902344 C 242.527344 322.082031 242.300781 322.808594 242.664062 323.511719 L 250.875 339.492188 C 251.242188 340.199219 252.0625 340.625 252.707031 340.445312 L 346.738281 314.105469 C 347.386719 313.925781 347.613281 313.199219 347.25 312.492188 L 339.039062 296.515625 C 338.675781 295.804688 337.855469 295.378906 337.207031 295.558594 Z M 349.085938 317.582031 C 349.328125 318.042969 349.175781 318.515625 348.753906 318.636719 L 344.023438 319.960938 L 342.707031 317.402344 L 347.4375 316.078125 C 347.859375 315.957031 348.394531 316.242188 348.636719 316.699219 Z M 343.339844 320.152344 L 340.007812 321.085938 L 338.695312 318.527344 L 342.027344 317.59375 Z M 339.332031 321.277344 L 335.839844 322.253906 L 334.523438 319.695312 L 338.011719 318.71875 Z M 335.15625 322.445312 L 331.945312 323.347656 L 330.628906 320.785156 L 333.84375 319.886719 Z M 331.261719 323.535156 L 328.207031 324.394531 L 326.894531 321.832031 L 329.949219 320.976562 Z M 327.527344 324.582031 L 324.515625 325.429688 L 323.199219 322.871094 L 326.210938 322.023438 Z M 323.832031 325.617188 L 320.386719 326.582031 L 319.070312 324.023438 L 322.515625 323.058594 Z M 319.707031 326.773438 L 316.304688 327.726562 L 314.988281 325.164062 L 318.390625 324.214844 Z M 315.625 327.917969 L 312.222656 328.871094 L 310.902344 326.3125 L 314.304688 325.359375 Z M 311.539062 329.0625 L 308.28125 329.972656 L 306.96875 327.414062 L 310.222656 326.503906 Z M 307.597656 330.164062 L 304.515625 331.027344 L 303.203125 328.46875 L 306.285156 327.605469 Z M 303.835938 331.21875 L 300.75 332.085938 L 299.433594 329.523438 L 302.519531 328.660156 Z M 300.070312 332.273438 L 296.855469 333.175781 L 295.539062 330.617188 L 298.757812 329.714844 Z M 296.175781 333.363281 L 293.207031 334.195312 L 291.890625 331.636719 L 294.859375 330.804688 Z M 292.523438 334.386719 L 288.992188 335.378906 L 287.675781 332.820312 L 291.210938 331.828125 Z M 288.3125 335.566406 L 284.878906 336.53125 L 283.5625 333.972656 L 286.996094 333.007812 Z M 284.195312 336.71875 L 280.707031 337.699219 L 279.394531 335.140625 L 282.882812 334.160156 Z M 280.027344 337.886719 L 276.882812 338.769531 L 275.570312 336.210938 L 278.714844 335.332031 Z M 276.207031 338.957031 L 273.640625 339.675781 L 272.324219 337.117188 L 274.890625 336.398438 Z M 272.960938 339.867188 L 270.167969 340.652344 L 268.851562 338.09375 L 271.648438 337.308594 Z M 269.484375 340.84375 L 266.460938 341.691406 L 265.140625 339.132812 L 268.171875 338.285156 Z M 265.777344 341.878906 L 262.460938 342.808594 L 261.148438 340.25 L 264.464844 339.320312 Z M 261.78125 343 L 258.40625 343.945312 L 257.089844 341.382812 L 260.464844 340.441406 Z M 257.726562 344.136719 L 255.273438 344.820312 C 254.851562 344.941406 254.3125 344.664062 254.074219 344.199219 L 253.621094 343.316406 C 253.386719 342.855469 253.535156 342.382812 253.957031 342.261719 L 256.410156 341.578125 Z M 347.054688 315.328125 L 253.574219 341.519531 C 252.773438 341.742188 252.492188 342.636719 252.941406 343.507812 L 253.398438 344.390625 C 253.84375 345.265625 254.855469 345.792969 255.65625 345.570312 L 349.136719 319.382812 C 349.933594 319.160156 350.21875 318.265625 349.769531 317.394531 L 349.316406 316.511719 C 348.863281 315.636719 347.855469 315.105469 347.054688 315.328125 Z M 352.054688 317.484375 C 352.667969 318.675781 352.285156 319.898438 351.195312 320.199219 L 254.851562 347.191406 C 253.761719 347.496094 252.378906 346.773438 251.765625 345.578125 L 239.976562 322.636719 C 239.359375 321.445312 239.746094 320.222656 240.835938 319.921875 L 337.179688 292.929688 C 338.265625 292.628906 339.652344 293.351562 340.265625 294.546875 Z M 336.792969 292.183594 L 240.449219 319.171875 C 238.988281 319.582031 238.46875 321.222656 239.292969 322.828125 L 251.085938 345.769531 C 251.910156 347.375 253.773438 348.347656 255.234375 347.9375 L 351.582031 320.949219 C 353.042969 320.539062 353.5625 318.898438 352.734375 317.292969 L 340.945312 294.351562 C 340.121094 292.75 338.257812 291.777344 336.792969 292.183594"/></g><path fill="#EDAA98" d="M 204.964844 361.730469 C 210.816406 376.628906 208.132812 369.164062 217.480469 378.625 C 226.824219 388.085938 235.195312 390.65625 236.824219 390.65625 C 238.457031 390.65625 236.027344 387.25 236.027344 387.25 C 236.027344 387.25 239.433594 392.832031 242.042969 392.832031 C 244.652344 392.832031 243.347656 389.460938 243.347656 389.460938 C 243.347656 389.460938 243.347656 390.441406 246.0625 390.222656 C 248.78125 390.003906 243.457031 377.0625 243.128906 375.214844 C 242.804688 373.367188 239.152344 367.417969 239.152344 367.417969 L 244.652344 368.835938 C 244.652344 368.835938 250.664062 383.988281 252.691406 382.828125 C 254.722656 381.667969 253.054688 366.078125 248.996094 362.746094 C 244.941406 359.410156 221.613281 351.292969 221.613281 351.292969 C 221.613281 351.292969 199.113281 346.832031 204.964844 361.730469 Z M 255.796875 183.726562 C 255.097656 183.292969 254.28125 183.046875 253.414062 183.046875 C 250.914062 183.046875 248.851562 185.097656 248.851562 187.613281 L 248.851562 192.1875 C 248.851562 194.476562 250.558594 196.382812 252.757812 196.699219 L 253.210938 222.921875 C 233.996094 239.328125 220.226562 222.613281 220.226562 222.613281 L 226.042969 219.371094 L 225.679688 211.367188 C 217.105469 213.933594 211.964844 212.878906 205.96875 199.894531 C 199.976562 186.914062 205.109375 182.382812 205.109375 182.382812 C 205.109375 182.382812 201.191406 163.027344 219.0625 157.398438 C 223.761719 155.914062 227.867188 156.28125 231.371094 157.609375 C 234.363281 155.34375 241.921875 151.363281 241.921875 151.363281 C 241.921875 151.363281 235.503906 155.898438 232.164062 157.917969 C 241.503906 161.917969 246.355469 172.703125 246.355469 172.703125 C 246.355469 172.703125 250.398438 165.726562 257.253906 170.863281 C 261.578125 174.109375 258.589844 179.902344 255.796875 183.726562"/><path fill="#100F0D" d="M 239.433594 367.09375 L 237.902344 365.757812 L 237.34375 366.402344 L 238.875 367.734375 Z M 237.027344 387.988281 L 228.113281 375.761719 L 227.425781 376.265625 L 236.339844 388.492188 Z M 242.949219 389.613281 C 242.910156 389.511719 239.175781 379.640625 238.253906 377.71875 C 237.347656 375.832031 232.417969 369.964844 232.371094 369.910156 L 233.019531 369.355469 C 233.226562 369.601562 238.070312 375.367188 239.019531 377.347656 C 239.957031 379.304688 243.59375 388.902344 243.746094 389.3125 L 242.949219 389.613281"/><path fill="#3E5BB2" d="M 260.449219 218.566406 C 260.667969 220.617188 262.484375 240.050781 253.910156 247.777344 C 251.632812 249.820312 248.824219 250.851562 245.519531 250.851562 C 244.1875 250.851562 242.78125 250.683594 241.296875 250.351562 C 219.644531 245.503906 219.21875 225.5 219.246094 223.136719 C 215.355469 225.09375 186.097656 239.886719 184.875 242.328125 C 183.570312 244.933594 166.398438 321.925781 167.703125 324.320312 C 168.050781 324.964844 170.90625 327.957031 174.878906 331.996094 C 175.101562 332.222656 175.332031 332.457031 175.570312 332.691406 C 186.515625 343.757812 204.964844 361.734375 204.964844 361.734375 L 221.609375 351.289062 L 201.363281 326.003906 L 200.785156 325.28125 L 190.960938 313.007812 L 203.066406 283.429688 L 221.769531 319.839844 L 288.988281 302.410156 L 288.988281 225.144531 Z M 226.042969 219.371094 L 225.847656 216.4375 L 252.894531 204.476562 L 253.105469 216.871094 L 259.664062 218.386719 C 259.84375 220.308594 261.453125 239.835938 253.339844 247.140625 C 250.367188 249.816406 246.375 250.617188 241.484375 249.519531 C 220.472656 244.8125 220.191406 224.910156 220.226562 222.613281 L 226.042969 219.371094"/><path fill="#FFF" d="M 220.886719 198.957031 C 213.136719 201.710938 211.25 196.710938 211.25 196.710938 C 216.972656 197.144531 232.769531 185.183594 232.769531 185.183594 C 232.769531 185.183594 228.636719 196.199219 220.886719 198.957031"/><path fill="#100F0D" d="M 236.082031 389.335938 C 236.074219 389.324219 236.078125 389.273438 236.058594 389.167969 C 235.839844 388.132812 235.113281 386.734375 234.1875 386.1875 C 233.960938 386.058594 233.746094 385.992188 233.539062 385.992188 C 233.445312 385.992188 233.351562 386.003906 233.257812 386.03125 L 233.253906 386.035156 C 232.980469 386.117188 232.390625 386.394531 232.292969 386.722656 C 232.25 386.886719 232.332031 387.089844 232.546875 387.332031 C 233.558594 388.476562 235.65625 389.515625 236.082031 389.335938 Z M 236.890625 388.996094 C 237.042969 389.722656 236.648438 390.003906 236.472656 390.089844 C 236.335938 390.160156 236.171875 390.191406 235.988281 390.191406 C 234.777344 390.191406 232.726562 388.820312 231.90625 387.894531 C 231.386719 387.304688 231.386719 386.808594 231.476562 386.488281 C 231.722656 385.632812 232.863281 385.261719 233.003906 385.21875 C 233.527344 385.058594 234.085938 385.140625 234.621094 385.457031 C 235.769531 386.132812 236.628906 387.746094 236.890625 388.996094 Z M 242.316406 388.90625 L 242.316406 388.910156 C 242.316406 388.910156 241.855469 387.777344 240.886719 387 C 240.476562 386.703125 239.796875 386.359375 239.347656 386.359375 C 239.246094 386.359375 239.160156 386.378906 239.085938 386.417969 C 238.851562 386.550781 238.746094 387.003906 238.800781 387.691406 C 238.902344 389.09375 240.222656 390.519531 241.386719 390.976562 C 241.832031 391.152344 242.191406 391.15625 242.371094 390.988281 C 242.476562 390.890625 242.792969 390.441406 242.316406 388.90625 Z M 243.117188 388.625 C 243.574219 390.089844 243.511719 391.085938 242.949219 391.613281 C 242.699219 391.84375 242.371094 391.960938 241.992188 391.960938 C 241.714844 391.960938 241.40625 391.898438 241.074219 391.769531 C 239.644531 391.210938 238.085938 389.554688 237.949219 387.753906 C 237.871094 386.6875 238.113281 385.984375 238.675781 385.671875 C 239.6875 385.105469 241.226562 386.191406 241.398438 386.316406 L 241.410156 386.328125 C 242.574219 387.257812 243.097656 388.570312 243.117188 388.625 Z M 245.1875 388.609375 C 244.597656 388.246094 244.179688 387.566406 243.953125 386.589844 C 243.710938 385.554688 243.757812 384.796875 244.09375 384.398438 C 244.398438 384.039062 244.871094 384.070312 244.890625 384.066406 L 244.921875 383.644531 L 244.960938 383.21875 C 244.921875 383.210938 244.050781 383.144531 243.457031 383.835938 C 242.921875 384.453125 242.808594 385.449219 243.125 386.785156 C 243.40625 387.996094 243.957031 388.859375 244.757812 389.34375 C 245.316406 389.683594 245.882812 389.765625 246.296875 389.765625 C 246.644531 389.765625 246.882812 389.707031 246.902344 389.703125 L 246.695312 388.875 C 246.6875 388.875 245.910156 389.054688 245.1875 388.609375 Z M 251.621094 378.039062 C 251.289062 375.71875 253.152344 375.367188 253.367188 375.332031 L 253.242188 374.488281 C 253.195312 374.496094 252.03125 374.671875 251.300781 375.648438 C 250.808594 376.304688 250.632812 377.148438 250.777344 378.15625 C 251.226562 381.25 253.144531 381.65625 253.222656 381.667969 L 253.390625 380.832031 C 253.332031 380.820312 251.976562 380.496094 251.621094 378.039062 Z M 199.433594 350.972656 L 207.984375 359.28125 L 208.574219 358.667969 L 200.027344 350.359375 Z M 202.761719 346.664062 L 212.972656 356.820312 L 213.574219 356.21875 L 203.359375 346.058594 Z M 207.976562 343.511719 L 217.964844 353.6875 L 218.570312 353.089844 L 208.582031 342.914062 Z M 229.019531 224.777344 L 229.871094 224.777344 L 229.871094 214.847656 L 229.019531 214.847656 Z M 236.492188 225.140625 L 236.492188 211.921875 L 235.640625 211.921875 L 235.640625 225.140625 Z M 242.050781 228.898438 L 242.902344 228.898438 L 242.902344 209.085938 L 242.050781 209.085938 Z M 247.511719 221.949219 L 248.363281 221.949219 L 248.363281 206.667969 L 247.511719 206.667969 Z M 215.855469 271.15625 L 204.386719 281.640625 L 211.121094 267.519531 L 210.351562 267.152344 L 201.738281 285.21875 L 216.425781 271.785156 Z M 252.683594 216.886719 L 252.8125 221.5625 L 253.664062 221.539062 L 253.535156 216.863281 Z M 206.746094 167.894531 L 206.15625 169.355469 L 209.511719 166.777344 C 209.511719 166.777344 207.691406 166.707031 206.746094 167.894531 Z M 210.6875 178.277344 C 209.546875 178.953125 208.054688 179.984375 207.765625 180.914062 C 207.667969 181.21875 207.695312 181.519531 207.832031 181.777344 C 208.574219 183.109375 211.746094 186.566406 211.878906 186.714844 L 212.507812 186.136719 C 212.472656 186.105469 209.269531 182.609375 208.578125 181.363281 C 208.566406 181.339844 208.539062 181.289062 208.574219 181.167969 C 208.835938 180.335938 211.046875 178.984375 212.378906 178.324219 L 212.003906 177.5625 C 211.871094 177.628906 211.371094 177.878906 210.765625 178.234375 C 210.085938 177.859375 206.621094 176.027344 204.765625 177.003906 L 201.972656 176.160156 L 204.964844 179.175781 C 204.964844 179.175781 207.785156 177.867188 210.6875 178.277344 Z M 227.261719 161.050781 C 219.800781 159.53125 216.140625 164.386719 216.140625 164.386719 C 219.367188 162.429688 234.722656 162.574219 227.261719 161.050781 Z M 220.015625 175.84375 C 223.132812 172.941406 231.25 171.636719 231.25 171.636719 L 231.902344 167.578125 L 228.855469 169.605469 C 222.625 170.765625 220.015625 175.84375 220.015625 175.84375 Z M 248.445312 178.183594 L 249.257812 178.429688 C 250.585938 174.050781 255.003906 174.433594 255.1875 174.453125 L 255.273438 173.605469 C 255.222656 173.601562 249.976562 173.121094 248.445312 178.183594 Z M 242.199219 199.460938 C 242.089844 199.558594 231.050781 209.027344 225.535156 210.964844 L 225.816406 211.765625 C 231.484375 209.78125 242.296875 200.5 242.753906 200.109375 Z M 231.753906 186.460938 C 228.03125 189.175781 217.222656 196.746094 211.957031 197.128906 C 212.710938 198.285156 215.03125 200.585938 220.742188 198.554688 C 226.570312 196.484375 230.351562 189.5 231.753906 186.460938 Z M 221.03125 199.359375 C 219.320312 199.964844 217.878906 200.203125 216.667969 200.203125 C 212.175781 200.203125 210.867188 196.902344 210.851562 196.859375 L 210.617188 196.234375 L 211.28125 196.285156 C 211.378906 196.289062 211.480469 196.292969 211.578125 196.292969 C 217.320312 196.292969 232.359375 184.960938 232.511719 184.84375 L 233.140625 184.367188 C 231.941406 183.800781 231.054688 183.128906 230.988281 183.078125 L 231.503906 182.402344 C 231.53125 182.421875 234.289062 184.507812 236.5 184.308594 L 236.574219 185.15625 C 236.449219 185.167969 236.324219 185.171875 236.195312 185.171875 C 235.269531 185.171875 234.3125 184.882812 233.472656 184.519531 L 233.167969 185.332031 C 232.996094 185.789062 228.878906 196.570312 221.03125 199.359375 Z M 217.945312 184.15625 L 214.105469 183.066406 L 214.335938 182.25 L 218.175781 183.335938 L 217.945312 184.15625"/><g clip-path="url(#c)"><path fill="#FFF" d="M 394.050781 294 L 294.566406 321.792969 C 290.433594 322.945312 286.34375 319.820312 286.375 315.523438 L 287.011719 228.0625 C 287.03125 225.054688 289.125 222.460938 292.0625 221.804688 L 396.167969 198.609375 C 400.363281 197.679688 404.285156 201.03125 404.011719 205.324219 L 398.761719 288.1875 C 398.585938 290.929688 396.699219 293.261719 394.050781 294"/></g><path fill="#100F0D" d="M 364.53125 266.75 C 364.3125 266.75 364.089844 266.773438 363.867188 266.824219 L 337.820312 272.679688 C 336.441406 272.988281 335.476562 274.195312 335.476562 275.609375 L 335.476562 297.113281 C 335.476562 298.054688 335.90625 298.921875 336.648438 299.496094 C 337.390625 300.070312 338.34375 300.257812 339.25 300.019531 L 364.691406 293.265625 C 365.96875 292.929688 366.886719 291.769531 366.921875 290.449219 L 367.523438 269.84375 C 367.550781 268.910156 367.15625 268.03125 366.433594 267.433594 C 365.886719 266.984375 365.21875 266.75 364.53125 266.75 Z M 338.46875 300.972656 C 337.632812 300.972656 336.816406 300.699219 336.128906 300.171875 C 335.171875 299.433594 334.625 298.320312 334.625 297.113281 L 334.625 275.609375 C 334.625 273.789062 335.863281 272.242188 337.632812 271.847656 L 363.679688 265.992188 C 364.847656 265.730469 366.050781 266.015625 366.976562 266.78125 C 367.898438 267.542969 368.410156 268.667969 368.375 269.867188 L 367.773438 290.472656 C 367.722656 292.167969 366.546875 293.65625 364.910156 294.089844 L 339.46875 300.839844 C 339.136719 300.929688 338.800781 300.972656 338.46875 300.972656"/><path fill="#FFF" d="M 386.789062 333.402344 L 334.914062 352.867188 C 333.714844 353.316406 332.375 353.234375 331.238281 352.632812 L 315.902344 344.53125 C 312.375 342.671875 312.839844 337.476562 316.640625 336.265625 L 371.898438 318.71875 C 373.035156 318.359375 374.265625 318.464844 375.324219 319.011719 L 387.273438 325.195312 C 390.734375 326.984375 390.4375 332.035156 386.789062 333.402344"/><g clip-path="url(#d)"><path fill="#100F0D" d="M 292.824219 318.457031 C 292.820312 317.617188 292.605469 233.941406 292.824219 230.515625 C 293.007812 227.527344 295.054688 226.375 295.363281 226.214844 L 399 202.847656 L 398.808594 202.015625 L 295.132812 225.398438 L 295.046875 225.425781 C 294.933594 225.476562 292.203125 226.769531 291.972656 230.460938 C 291.757812 233.917969 291.960938 315.011719 291.972656 318.460938 Z M 397.585938 198.878906 C 397.148438 198.878906 396.703125 198.929688 396.257812 199.03125 L 292.15625 222.21875 C 289.394531 222.835938 287.453125 225.238281 287.4375 228.066406 L 286.800781 315.527344 C 286.785156 317.4375 287.648438 319.199219 289.164062 320.363281 C 290.683594 321.527344 292.609375 321.890625 294.449219 321.382812 L 393.9375 293.589844 C 396.40625 292.898438 398.171875 290.71875 398.335938 288.160156 L 403.585938 205.296875 C 403.707031 203.386719 402.945312 201.578125 401.488281 200.332031 C 400.378906 199.382812 399.007812 198.878906 397.585938 198.878906 Z M 292.808594 322.460938 C 291.324219 322.460938 289.871094 321.976562 288.648438 321.039062 C 286.917969 319.714844 285.933594 317.703125 285.949219 315.519531 L 286.585938 228.058594 C 286.605469 224.835938 288.824219 222.089844 291.96875 221.386719 L 396.074219 198.195312 C 398.203125 197.722656 400.378906 198.265625 402.042969 199.683594 C 403.703125 201.105469 404.578125 203.171875 404.4375 205.355469 L 399.1875 288.210938 C 399 291.132812 396.984375 293.625 394.167969 294.410156 L 294.683594 322.199219 C 294.0625 322.375 293.433594 322.460938 292.808594 322.460938"/></g><path fill="#100F0D" d="M 334.144531 349.484375 L 316.359375 339.933594 L 315.957031 340.6875 L 333.742188 350.234375 Z M 373.011719 318.941406 C 372.683594 318.964844 372.347656 319.023438 372.027344 319.125 L 316.769531 336.675781 C 315.175781 337.179688 314.09375 338.53125 313.945312 340.195312 C 313.796875 341.855469 314.621094 343.378906 316.101562 344.15625 L 331.4375 352.257812 C 332.464844 352.796875 333.679688 352.878906 334.765625 352.46875 L 386.640625 333.003906 C 388.167969 332.429688 389.175781 331.0625 389.273438 329.433594 C 389.371094 327.804688 388.53125 326.324219 387.082031 325.574219 L 375.125 319.390625 C 374.464844 319.046875 373.734375 318.898438 373.011719 318.941406 Z M 333.648438 353.570312 C 332.753906 353.625 331.847656 353.4375 331.039062 353.011719 L 315.703125 344.910156 C 313.917969 343.96875 312.917969 342.128906 313.097656 340.117188 C 313.277344 338.105469 314.585938 336.472656 316.511719 335.859375 L 371.765625 318.3125 C 373.019531 317.917969 374.351562 318.027344 375.519531 318.632812 L 387.46875 324.816406 C 389.222656 325.726562 390.242188 327.511719 390.125 329.480469 C 390.007812 331.457031 388.789062 333.109375 386.9375 333.800781 L 335.0625 353.269531 C 334.605469 353.4375 334.125 353.539062 333.648438 353.570312"/><path fill="#FFF" d="M 359.710938 281.234375 L 363.097656 288.488281 C 363.273438 288.871094 363.363281 289.289062 363.363281 289.707031 L 363.363281 327.5625 C 363.363281 328.804688 362.574219 329.902344 361.398438 330.292969 L 349.957031 334.109375 C 348.058594 334.742188 346.109375 333.296875 346.171875 331.296875 L 347.273438 293.492188 C 347.285156 293.085938 347.207031 292.675781 347.050781 292.300781 L 344.417969 286.015625 C 343.734375 284.382812 344.671875 282.527344 346.390625 282.105469 L 356.425781 279.652344 C 357.757812 279.328125 359.132812 279.988281 359.710938 281.234375"/><path fill="#100F0D" d="M 356.527344 280.066406 L 346.492188 282.519531 C 345.792969 282.6875 345.207031 283.15625 344.878906 283.796875 C 344.558594 284.4375 344.53125 285.1875 344.8125 285.851562 L 347.441406 292.132812 C 347.625 292.570312 347.710938 293.03125 347.699219 293.507812 L 346.597656 331.308594 C 346.574219 332.121094 346.933594 332.863281 347.585938 333.347656 C 348.234375 333.835938 349.054688 333.960938 349.824219 333.703125 L 361.265625 329.886719 C 362.265625 329.554688 362.9375 328.621094 362.9375 327.5625 L 362.9375 289.707031 C 362.9375 289.34375 362.863281 288.996094 362.710938 288.667969 L 359.328125 281.414062 C 358.835938 280.355469 357.660156 279.789062 356.527344 280.066406 Z M 349.035156 334.691406 C 348.339844 334.691406 347.65625 334.464844 347.074219 334.03125 C 346.199219 333.378906 345.710938 332.375 345.746094 331.28125 L 346.847656 293.484375 C 346.855469 293.132812 346.792969 292.789062 346.65625 292.460938 L 344.027344 286.179688 C 343.648438 285.289062 343.6875 284.28125 344.121094 283.414062 C 344.558594 282.550781 345.347656 281.921875 346.289062 281.695312 L 356.324219 279.242188 C 357.84375 278.871094 359.4375 279.628906 360.097656 281.054688 L 363.480469 288.308594 C 363.6875 288.75 363.789062 289.222656 363.789062 289.707031 L 363.789062 327.5625 C 363.789062 328.984375 362.886719 330.246094 361.535156 330.695312 L 350.089844 334.515625 C 349.742188 334.628906 349.386719 334.691406 349.035156 334.691406"/></svg>